<?xml version="1.0" standalone="no"?>
<!DOCTYPE svg PUBLIC "-//W3C//DTD SVG 20010904//EN"
 "http://www.w3.org/TR/2001/REC-SVG-20010904/DTD/svg10.dtd">
<svg version="1.0" xmlns="http://www.w3.org/2000/svg"
 width="1536.000000pt" height="2752.000000pt" viewBox="0 0 1536.000000 2752.000000"
 preserveAspectRatio="xMidYMid meet">

<g transform="translate(0.000000,2752.000000) scale(0.100000,-0.100000)"
fill="#000000" stroke="none">
<path d="M9501 17632 c-92 -154 -145 -268 -170 -367 -51 -204 -38 -295 70
-486 89 -154 125 -233 148 -321 9 -38 21 -70 25 -71 4 -1 20 37 36 85 35 103
75 185 141 288 66 104 87 154 100 244 21 143 -12 295 -106 481 -55 109 -152
265 -165 265 -5 0 -40 -53 -79 -118z"/>
<path d="M11780 17176 c0 -2 33 -14 73 -26 217 -66 585 -243 797 -385 391
-260 709 -594 867 -908 74 -149 131 -297 154 -407 32 -148 32 -400 1 -546 -23
-107 -70 -233 -121 -324 -17 -30 -31 -58 -31 -63 0 -4 26 10 58 32 66 45 127
69 197 79 l50 7 17 65 c83 306 74 594 -28 899 -175 525 -621 986 -1257 1300
-111 55 -263 122 -337 150 -199 73 -440 143 -440 127z"/>
<path d="M8855 16862 c-242 -84 -342 -386 -201 -606 84 -130 222 -206 375
-206 79 0 140 26 178 77 21 28 28 49 31 100 5 80 -16 140 -64 183 -29 25 -43
30 -85 30 -67 0 -106 -22 -130 -73 -23 -53 -23 -64 0 -110 22 -43 15 -48 -18
-13 -28 30 -38 99 -22 148 13 40 61 92 105 116 84 44 221 6 316 -89 47 -47 90
-133 90 -179 0 -27 14 -32 65 -24 l45 6 0 42 c0 192 -138 442 -300 546 -106
68 -274 91 -385 52z"/>
<path d="M10030 16862 c-30 -10 -76 -31 -102 -46 -68 -40 -177 -160 -221 -244
-39 -74 -82 -221 -88 -302 l-4 -45 52 -3 c51 -3 51 -3 58 30 19 85 77 167 156
218 111 71 219 74 296 7 46 -41 63 -77 63 -137 0 -43 -21 -110 -34 -110 -3 0
-12 -3 -21 -6 -14 -6 -13 -1 4 27 12 19 21 48 21 65 0 42 -37 95 -83 118 -135
66 -268 -136 -187 -284 19 -34 38 -52 80 -73 51 -27 61 -28 143 -24 76 4 98
10 163 42 41 20 91 52 110 72 208 208 165 552 -84 676 -60 29 -76 32 -167 34
-75 2 -114 -2 -155 -15z"/>
<path d="M2768 16613 c-372 -301 -614 -554 -811 -850 -454 -680 -497 -1466
-114 -2052 442 -675 1533 -1233 2979 -1525 450 -91 907 -149 1286 -163 l162
-6 0 511 0 512 -22 4 c-13 2 -117 12 -233 21 -248 19 -490 50 -820 106 -1168
196 -1979 521 -2417 966 -111 113 -147 157 -221 268 -73 111 -143 249 -192
380 -95 255 -129 590 -85 850 41 244 129 457 288 695 56 84 129 176 192 243
56 59 99 107 96 107 -3 0 -43 -30 -88 -67z"/>
<path d="M9481 16191 c-48 -13 -85 -44 -89 -74 -8 -66 59 -106 179 -107 104 0
135 8 170 42 44 45 37 83 -24 123 -31 20 -179 30 -236 16z"/>
<path d="M10428 15343 c2 -307 4 -558 5 -559 1 -1 72 -3 157 -5 l155 -4 2 275
c2 173 6 274 12 273 13 -3 222 -101 606 -283 406 -193 572 -270 579 -270 3 0
6 252 6 560 l0 561 -152 -3 -153 -3 0 -278 c0 -152 -3 -277 -6 -277 -3 0 -39
16 -80 36 -41 20 -173 83 -294 139 -121 56 -353 164 -515 240 -162 75 -299
141 -304 146 -6 5 -12 9 -15 9 -4 0 -5 -251 -3 -557z"/>
<path d="M2480 15336 c0 -305 3 -556 8 -558 4 -2 76 -2 160 0 l152 3 0 188 0
188 53 7 c28 3 91 6 139 6 l86 0 179 -162 c99 -90 198 -180 221 -200 l42 -38
230 0 c127 0 230 4 230 8 0 5 -93 92 -207 193 l-207 184 97 6 c157 11 253 69
304 186 13 29 17 68 18 173 0 125 -2 139 -26 190 -32 68 -83 120 -146 151
l-48 24 -642 3 -643 2 0 -554z m1160 231 c29 -15 37 -48 16 -66 -11 -9 -117
-12 -425 -12 -226 0 -416 3 -421 6 -11 7 -14 68 -3 78 3 4 187 7 407 7 302 0
407 -3 426 -13z"/>
<path d="M4273 15866 c-71 -33 -136 -96 -164 -159 -24 -51 -24 -57 -24 -372
l0 -320 28 -57 c30 -62 83 -115 149 -150 l43 -23 530 0 530 0 51 27 c96 51
156 151 173 288 13 104 14 379 1 478 -5 40 -18 93 -29 117 -28 63 -94 130
-164 165 l-60 30 -506 0 -506 0 -52 -24z m923 -302 c63 -30 74 -62 74 -225 0
-166 -11 -202 -70 -231 -31 -16 -71 -18 -365 -18 -363 0 -374 2 -419 63 -19
26 -21 42 -21 182 0 140 2 156 21 182 45 61 56 63 417 63 281 0 334 -2 363
-16z"/>
<path d="M5871 15868 c-34 -13 -74 -40 -107 -72 -78 -76 -94 -137 -98 -376 -5
-280 5 -387 43 -465 32 -65 81 -114 151 -151 33 -18 69 -19 543 -22 326 -2
521 1 546 8 21 5 56 22 79 38 89 59 127 146 138 311 l7 111 -157 0 -156 0 0
-25 c0 -51 -26 -91 -72 -114 -42 -20 -58 -21 -366 -21 -349 0 -363 2 -412 54
-24 27 -25 33 -28 181 -4 173 4 201 61 232 29 16 66 18 372 18 313 0 343 -2
378 -19 40 -20 57 -42 67 -91 l6 -30 152 -3 152 -3 0 68 c-1 185 -70 313 -201
373 -42 19 -67 20 -544 19 -482 0 -502 -1 -554 -21z"/>
<path d="M7255 15878 c-3 -7 -4 -256 -3 -553 l3 -540 768 -3 767 -2 0 155 0
155 -615 0 -615 0 0 58 c0 31 0 211 0 400 l0 342 -150 0 c-111 0 -152 -3 -155
-12z"/>
<path d="M9473 15883 c-29 -5 -45 -29 -125 -183 -36 -69 -94 -179 -130 -245
-90 -166 -223 -417 -296 -557 l-61 -118 152 -1 c84 0 161 -2 172 -4 37 -8 50
5 90 85 l40 79 287 1 286 0 44 -82 44 -83 187 -3 c118 -1 187 1 187 7 0 6 -25
57 -57 113 -142 259 -265 487 -447 828 -92 172 -89 170 -234 169 -64 -1 -127
-4 -139 -6z m185 -522 c28 -54 52 -101 52 -105 0 -3 -47 -6 -105 -6 -58 0
-105 4 -105 9 0 17 89 201 97 201 4 0 32 -45 61 -99z"/>
<path d="M12045 15878 c-3 -7 -4 -260 -3 -563 l3 -550 615 0 c484 0 625 3 661
13 75 22 139 78 179 156 l35 69 0 296 c0 252 -3 304 -17 352 -22 70 -66 131
-124 172 -98 69 -65 66 -737 66 -477 1 -609 -2 -612 -11z m1104 -331 c19 -7
44 -25 55 -40 19 -26 21 -41 20 -186 0 -146 -2 -161 -23 -194 -16 -26 -33 -40
-61 -47 -24 -6 -177 -9 -411 -8 l-373 3 -3 229 c-2 127 -1 236 1 243 7 18 744
18 795 0z"/>
<path d="M13695 14478 c-22 -11 -85 -49 -140 -83 -297 -185 -1615 -971 -1795
-1070 -133 -73 -173 -105 -199 -158 -25 -51 -28 -150 -8 -200 49 -115 194
-178 304 -132 33 14 706 413 1098 651 94 57 357 216 585 352 462 277 465 279
458 368 -4 41 -16 71 -68 154 -35 56 -72 111 -83 121 -28 26 -100 24 -152 -3z
m30 -155 c-8 -32 -27 -112 -43 -178 l-29 -120 -94 -58 c-52 -31 -111 -68 -133
-82 -21 -14 -40 -24 -41 -23 -5 6 64 296 78 330 12 28 38 49 138 111 68 42
127 76 131 77 3 0 0 -26 -7 -57z m-629 -404 c-13 -52 -32 -134 -41 -182 l-18
-88 -85 -50 c-47 -28 -112 -68 -144 -89 -55 -37 -58 -38 -58 -17 0 37 90 341
107 359 8 9 61 44 116 77 56 33 111 66 122 75 11 8 21 13 22 12 2 -1 -8 -45
-21 -97z m-610 -296 c-3 -10 -21 -88 -41 -173 -21 -85 -41 -162 -45 -170 -11
-19 -250 -163 -258 -156 -6 7 28 162 61 279 l22 78 125 79 c69 43 129 79 133
79 5 1 6 -7 3 -16z"/>
<path d="M7656 14466 c-68 -26 -120 -93 -159 -208 -6 -16 -20 -18 -106 -18
l-100 0 -60 -50 c-33 -27 -63 -54 -66 -60 -4 -6 -25 -25 -47 -41 l-41 -29
-211 0 c-205 0 -213 -1 -266 -26 -94 -43 -155 -115 -185 -216 -14 -49 -15
-180 -13 -1214 l3 -1159 23 -57 c32 -79 101 -149 187 -190 l70 -33 1060 0
1060 0 69 34 c92 45 137 88 172 163 l29 63 0 1195 0 1195 -26 55 c-36 78 -80
124 -151 160 l-61 30 -214 0 c-137 0 -222 4 -236 11 -12 6 -58 47 -102 90
l-80 78 -109 3 -109 3 -12 47 c-15 61 -59 124 -109 157 -47 31 -149 39 -210
17z m136 -137 c27 -14 51 -74 43 -109 -16 -71 -109 -97 -160 -45 -55 54 -14
165 62 165 19 0 43 -5 55 -11z m262 -335 c10 -25 7 -59 -6 -72 -9 -9 -91 -12
-309 -12 -321 0 -329 1 -329 54 0 45 7 46 331 46 271 0 308 -2 313 -16z m733
-275 c32 -16 52 -35 73 -73 l30 -51 -2 -1047 -3 -1046 -30 -44 c-17 -24 -49
-52 -72 -64 -39 -20 -60 -21 -415 -26 -206 -3 -420 -3 -475 0 l-102 5 -5 76
c-3 42 -10 128 -15 191 -5 64 -6 131 -2 150 6 31 11 35 50 42 61 10 81 31 81
84 0 24 -5 46 -12 50 -7 4 -42 10 -78 13 l-65 6 -17 105 c-24 146 -23 172 5
198 l24 22 32 -35 c18 -20 38 -35 44 -33 9 3 132 233 150 282 2 5 15 6 30 2
l27 -6 -16 -41 c-10 -23 -13 -44 -8 -48 17 -16 251 -91 282 -91 21 0 35 7 42
19 10 19 11 19 40 3 22 -13 32 -14 41 -5 18 18 -54 89 -127 123 -81 39 -249
100 -275 100 -21 0 -119 85 -119 104 0 32 75 185 109 221 69 75 78 158 26 237
l-27 40 22 51 c12 29 38 78 58 111 51 84 44 98 -84 161 -56 28 -158 70 -227
94 l-126 43 -98 -33 c-137 -45 -300 -115 -338 -144 -50 -37 -49 -55 6 -142 63
-100 68 -125 34 -189 -22 -41 -26 -58 -22 -100 6 -59 27 -105 67 -149 15 -16
37 -55 50 -85 12 -30 29 -64 36 -75 22 -31 17 -48 -28 -92 -35 -34 -62 -48
-138 -73 -52 -17 -141 -53 -196 -80 -85 -41 -109 -58 -144 -102 -74 -94 -75
-96 -177 -528 -52 -222 -62 -348 -31 -407 9 -18 13 -33 8 -33 -17 0 -70 72
-80 109 -7 27 -10 363 -8 1058 l3 1019 25 49 c19 35 37 55 69 72 l44 23 1005
0 c1003 0 1006 0 1049 -21z m-1088 -185 c30 -6 31 -8 31 -58 0 -73 -28 -116
-75 -116 -25 0 -44 8 -61 25 -22 22 -25 32 -22 82 3 55 4 58 33 64 43 9 59 10
94 3z m161 -259 c152 -41 156 -73 5 -43 -168 33 -433 14 -537 -39 -26 -12 -28
-12 -28 5 0 24 93 68 188 87 87 19 284 13 372 -10z m-358 -210 c75 -18 216
-19 290 -4 29 7 77 22 107 35 30 14 56 23 57 21 2 -2 -1 -19 -6 -38 -6 -18
-10 -42 -10 -52 0 -32 17 -9 30 40 11 46 12 47 27 28 31 -41 -5 -133 -58 -150
-11 -4 -23 -23 -30 -48 -18 -68 -65 -152 -105 -187 -50 -43 -93 -60 -154 -60
-117 0 -217 92 -261 239 -8 28 -21 47 -37 54 -31 14 -49 50 -56 112 -6 53 -1
48 24 -25 9 -26 21 -45 30 -45 12 0 15 13 13 68 l-2 67 39 -20 c22 -11 68 -27
102 -35z m153 -480 c71 0 86 4 138 32 31 17 57 27 57 23 0 -9 -132 -130 -169
-157 -12 -8 -29 -12 -39 -9 -18 6 -185 150 -190 165 -1 4 25 -6 60 -23 54 -27
73 -31 143 -31z m265 -36 c0 -4 -23 -56 -51 -115 l-51 -106 -50 49 -50 50 48
45 c134 123 128 119 142 101 6 -9 12 -20 12 -24z m-424 -41 c45 -40 83 -76 83
-81 1 -10 -79 -97 -90 -97 -11 0 -75 115 -94 169 -11 31 -12 48 -5 62 6 10 13
19 17 19 3 0 43 -33 89 -72z m-116 -127 c38 -78 75 -141 82 -141 7 0 30 17 51
38 l38 37 20 -25 c15 -17 19 -33 15 -55 -3 -16 -8 -72 -12 -123 -6 -75 -4 -96
7 -103 10 -6 4 -9 -19 -9 -57 0 -97 -24 -138 -84 -22 -30 -45 -58 -52 -61 -19
-7 -202 -45 -218 -45 -10 0 -14 25 -16 98 -3 96 -3 97 -28 97 -24 0 -25 -3
-32 -90 -4 -49 -9 -99 -10 -110 -2 -15 -19 -24 -77 -40 -76 -21 -106 -44 -84
-66 9 -9 54 -2 192 29 100 23 187 42 195 42 12 0 23 -28 62 -162 11 -39 -397
-208 -500 -208 -52 0 -100 34 -122 86 -21 50 5 226 81 539 47 193 58 228 95
285 l32 50 25 -25 c19 -19 32 -23 52 -18 25 6 273 102 279 108 2 1 -4 20 -12
40 -9 21 -16 41 -16 45 0 8 31 19 38 14 2 -1 34 -65 72 -143z m458 -456 c12
-3 22 -12 22 -20 0 -12 -20 -15 -115 -15 -96 0 -117 -3 -122 -16 -8 -22 21
-48 54 -49 18 0 29 -6 31 -17 2 -11 -3 -18 -11 -18 -26 0 -38 -25 -27 -54 12
-34 5 -52 -28 -65 -34 -13 -222 -40 -226 -32 -13 22 -36 125 -31 139 3 9 36
49 73 87 l67 71 145 -3 c80 -2 155 -6 168 -8z m-318 -384 c0 -26 -3 -76 -6
-110 l-7 -61 -169 0 -169 0 3 23 c2 16 25 33 88 67 47 25 107 61 135 80 59 42
73 48 103 49 20 1 22 -4 22 -48z m-433 -167 c-3 -3 -12 -4 -19 -1 -8 3 -5 6 6
6 11 1 17 -2 13 -5z"/>
<path d="M8073 12289 c-17 -5 -40 -20 -51 -33 -10 -13 -38 -98 -61 -188 -23
-89 -67 -254 -97 -366 l-55 -203 18 -37 18 -37 325 0 325 0 20 32 c16 25 27
32 53 33 54 0 88 25 115 82 30 64 57 163 57 211 0 37 -32 87 -56 87 -19 0 -20
-7 26 168 47 181 49 200 14 233 l-26 24 -296 2 c-164 1 -311 -3 -329 -8z m611
-67 c3 -6 -11 -67 -75 -304 -9 -36 -12 -38 -49 -38 -21 0 -45 -3 -54 -6 -19
-7 -58 -69 -54 -86 1 -7 -6 -25 -15 -39 -11 -17 -16 -36 -12 -51 3 -13 2 -35
-4 -50 -13 -34 1 -94 30 -124 17 -18 19 -25 8 -29 -8 -3 -140 -4 -294 -3 -274
3 -280 3 -277 23 4 26 183 698 189 708 6 9 600 9 607 -1z m-20 -418 c23 -9 19
-36 -17 -139 l-32 -90 -45 -3 c-46 -2 -94 15 -91 33 1 6 27 9 60 7 45 -3 60 0
64 12 8 20 -33 52 -78 60 -32 6 -42 15 -30 28 3 2 28 1 57 -3 57 -7 78 1 78
32 0 13 -12 21 -42 30 -24 6 -49 13 -55 15 -7 2 -13 8 -13 14 0 11 117 14 144
4z"/>
<path d="M8225 12020 c-11 -5 -32 -9 -46 -9 -43 -1 -59 -30 -70 -130 -6 -51
-8 -95 -4 -99 3 -4 79 -7 168 -7 l161 0 0 100 1 100 -41 10 c-23 6 -48 15 -56
22 -19 16 -88 25 -113 13z m102 -82 c50 -47 17 -128 -52 -128 -71 0 -112 83
-65 130 28 28 87 27 117 -2z"/>
<path d="M8237 11922 c-46 -51 14 -113 67 -71 31 25 33 42 6 69 -25 25 -52 26
-73 2z"/>
<path d="M11278 13610 c-90 -60 -83 40 -86 -1197 l-2 -1093 -115 0 -115 0 0
-80 0 -80 700 0 700 0 0 80 0 80 -115 0 -115 0 0 765 c0 421 -3 765 -6 765 -4
0 -33 -16 -65 -35 -32 -20 -88 -50 -126 -67 -60 -28 -79 -32 -158 -32 -77 -1
-98 3 -145 25 -76 36 -121 77 -159 149 -77 144 -39 336 85 436 42 33 142 94
322 195 109 60 140 88 127 109 -4 6 -134 10 -344 10 l-338 0 -45 -30z"/>
<path d="M10965 13249 c-111 -25 -486 -93 -685 -123 -267 -41 -637 -80 -975
-102 l-100 -6 3 -441 c1 -243 4 -442 5 -444 5 -5 533 88 722 127 356 74 750
179 1018 272 l117 41 -2 345 c-2 220 -7 346 -13 347 -5 2 -46 -6 -90 -16z"/>
<path d="M13191 13106 c-48 -17 -108 -71 -133 -119 -16 -31 -22 -59 -21 -107
0 -140 86 -237 225 -256 84 -11 199 53 245 139 26 48 24 170 -4 222 -60 112
-194 164 -312 121z m176 -63 c108 -51 128 -237 34 -316 -60 -50 -133 -56 -213
-16 -126 64 -123 271 6 330 51 23 127 24 173 2z"/>
<path d="M13187 13003 c-4 -3 -7 -64 -7 -135 0 -106 3 -130 15 -134 26 -10 45
16 45 62 0 24 5 44 10 44 6 0 26 -22 45 -49 39 -53 54 -64 76 -50 14 9 11 19
-31 85 -11 18 -10 24 14 47 46 46 31 109 -32 127 -42 11 -125 14 -135 3z m117
-49 c9 -3 16 -16 16 -29 0 -24 -17 -35 -55 -35 -18 0 -24 7 -27 30 -3 17 -2
32 0 35 7 7 47 6 66 -1z"/>
<path d="M3845 10820 c-119 -38 -212 -124 -256 -237 -33 -83 -33 -253 0 -336
43 -110 132 -195 245 -234 38 -13 81 -18 166 -18 130 0 196 16 273 64 l47 31
0 175 0 175 -67 0 c-119 0 -113 7 -113 -136 0 -124 0 -125 -26 -134 -40 -16
-170 -12 -212 6 -48 19 -88 58 -114 109 -29 55 -36 167 -14 232 50 152 264
203 402 98 l36 -28 61 61 c68 68 68 70 -8 122 -102 70 -287 92 -420 50z"/>
<path d="M4470 10558 c0 -295 6 -340 54 -422 61 -104 144 -141 316 -141 106 0
120 2 172 28 65 32 121 89 152 156 20 43 21 64 24 349 l3 302 -90 0 -90 0 -3
-267 c-3 -251 -4 -271 -25 -315 -31 -69 -70 -90 -155 -86 -58 3 -71 8 -99 33
-60 57 -63 73 -67 368 l-4 267 -94 0 -94 0 0 -272z"/>
<path d="M5597 10823 c-7 -12 -196 -457 -271 -637 -36 -87 -66 -164 -66 -172
0 -11 20 -14 94 -14 l94 0 38 90 37 90 176 -2 176 -3 22 -50 c13 -27 31 -66
40 -85 l18 -35 98 -3 c56 -2 97 1 97 7 0 5 -14 40 -31 78 -17 37 -91 208 -164
378 -73 171 -139 322 -146 338 -12 27 -13 27 -110 27 -54 0 -100 -3 -102 -7z
m151 -318 c22 -55 48 -117 56 -137 l16 -38 -115 0 c-81 0 -115 3 -115 12 0 22
104 278 110 270 4 -4 25 -52 48 -107z"/>
<path d="M6232 10418 l3 -413 90 0 90 0 3 118 3 117 78 0 77 0 80 -117 79
-118 98 -3 c72 -2 97 0 97 10 0 7 -37 68 -82 136 l-81 123 52 46 c67 59 91
107 98 198 9 120 -33 208 -123 261 -75 44 -139 54 -362 54 l-202 0 2 -412z
m435 228 c84 -43 84 -175 0 -226 -26 -17 -51 -20 -139 -20 l-108 0 0 128 c0
71 3 132 8 136 13 15 205 0 239 -18z"/>
<path d="M7059 10538 c-1 -161 -2 -347 -3 -413 l-1 -120 228 3 c238 2 278 7
360 48 124 64 195 171 211 321 12 120 -38 268 -114 337 -50 45 -140 90 -208
105 -30 6 -145 11 -262 11 l-210 0 -1 -292z m469 104 c83 -38 131 -120 132
-222 0 -114 -64 -210 -159 -239 -21 -6 -86 -11 -145 -11 l-106 0 0 251 0 251
123 -7 c75 -5 135 -13 155 -23z"/>
<path d="M7980 10415 l0 -415 95 0 95 0 0 415 0 415 -95 0 -95 0 0 -415z"/>
<path d="M8575 10794 c-8 -20 -15 -38 -15 -40 0 -2 -44 -108 -99 -236 -183
-431 -211 -498 -211 -503 0 -3 44 -5 98 -5 l99 0 28 73 c15 39 32 78 38 85 7
9 56 12 182 12 l172 0 41 -90 41 -91 96 2 c57 1 95 6 95 12 0 12 -124 304
-254 597 l-95 215 -100 3 -100 3 -16 -37z m173 -312 c29 -75 52 -140 52 -144
0 -5 -50 -8 -111 -8 -85 0 -110 3 -107 13 30 86 104 277 108 277 3 0 29 -62
58 -138z"/>
<path d="M9765 10798 c-7 -18 -84 -199 -170 -403 -86 -203 -157 -374 -158
-380 -1 -6 35 -10 93 -10 l95 0 36 85 36 85 178 0 178 0 36 -85 36 -85 103 -3
c56 -1 102 1 102 5 0 4 -80 191 -177 416 l-177 407 -99 0 -98 0 -14 -32z m174
-323 c28 -71 51 -133 51 -137 0 -5 -49 -8 -110 -8 -60 0 -110 3 -110 8 -1 20
104 281 110 275 4 -5 30 -66 59 -138z"/>
<path d="M10406 10823 c-8 -9 -6 -712 2 -773 l7 -45 90 2 90 2 3 115 3 116 82
0 c122 0 210 16 277 50 99 50 142 125 142 250 0 91 -18 139 -70 193 -45 47
-90 71 -160 86 -57 12 -454 16 -466 4z m441 -176 c63 -33 85 -136 41 -192 -33
-43 -76 -55 -188 -55 l-100 0 0 128 c0 71 3 132 8 136 14 15 205 1 239 -17z"/>
<path d="M11226 10558 c-4 -150 -6 -336 -4 -413 l3 -140 95 0 95 0 3 116 3
116 127 6 c148 6 221 28 284 85 67 60 83 102 83 213 0 89 -2 99 -30 145 -32
52 -102 105 -163 126 -23 7 -124 13 -263 15 l-227 4 -6 -273z m424 90 c83 -42
103 -137 44 -199 -38 -40 -83 -51 -189 -47 l-90 3 -3 119 c-1 66 0 126 2 133
4 9 31 13 99 13 76 0 101 -4 137 -22z"/>
<path d="M4201 9654 c-86 -43 -130 -135 -111 -236 23 -121 98 -182 225 -183
59 0 78 4 118 28 51 30 57 45 29 70 -24 22 -34 21 -74 -3 -39 -24 -107 -26
-148 -5 -87 45 -95 190 -14 254 37 29 124 29 171 0 l35 -22 26 27 c27 27 27
27 7 43 -76 59 -178 69 -264 27z"/>
<path d="M4641 9654 c-61 -31 -95 -76 -111 -149 -38 -168 102 -305 273 -266
102 23 167 108 167 218 -1 175 -170 276 -329 197z m185 -73 c59 -36 81 -127
47 -198 -21 -46 -67 -73 -121 -73 -91 0 -142 55 -142 154 0 55 3 61 39 97 35
36 43 39 92 39 35 0 65 -7 85 -19z"/>
<path d="M5494 9665 c-4 -8 -3 -26 0 -40 6 -23 10 -25 71 -25 l65 0 2 -177 3
-178 43 -3 42 -3 0 180 0 180 68 3 67 3 3 38 3 37 -181 0 c-151 0 -182 -2
-186 -15z"/>
<path d="M5914 9667 c-2 -7 -3 -105 -2 -217 l3 -205 43 -3 42 -3 0 65 0 66 53
0 c60 0 66 -5 111 -82 26 -46 29 -48 71 -48 51 0 54 7 22 47 -13 15 -33 42
-45 60 l-23 32 36 33 c88 80 53 225 -61 257 -57 16 -243 14 -250 -2z m219 -68
c65 -18 82 -98 29 -139 -19 -16 -40 -20 -93 -20 l-69 0 0 78 c0 43 3 82 7 85
10 11 83 8 126 -4z"/>
<path d="M6465 9661 c-122 -55 -169 -209 -99 -328 79 -136 314 -135 391 2 66
119 19 271 -102 326 -52 24 -138 24 -190 0z m173 -78 c83 -51 81 -203 -2 -254
-38 -23 -106 -25 -147 -4 -82 43 -94 182 -21 248 40 36 120 41 170 10z"/>
<path d="M6870 9460 l0 -220 150 0 150 0 0 35 0 35 -110 0 -110 0 0 185 0 185
-40 0 -40 0 0 -220z"/>
<path d="M7413 9673 c-10 -4 -13 -57 -13 -219 l0 -214 118 0 c146 0 185 11
238 64 70 69 82 177 32 269 -44 79 -124 109 -278 106 -47 -1 -91 -4 -97 -6z
m246 -91 c53 -27 76 -65 76 -126 -1 -96 -65 -146 -185 -146 l-60 0 0 145 0
145 68 0 c44 0 79 -6 101 -18z"/>
<path d="M7988 9673 l-88 -4 0 -214 0 -215 160 0 160 0 0 35 0 35 -120 0 -121
0 3 58 3 57 103 3 102 3 0 29 0 29 -102 3 -103 3 -3 53 -3 52 116 0 116 0 -3
38 -3 37 -65 1 c-36 0 -104 -1 -152 -3z"/>
<path d="M8545 9548 c-32 -73 -76 -169 -97 -213 -21 -44 -38 -84 -38 -88 0 -4
21 -7 46 -5 45 3 47 4 63 48 l17 45 105 3 105 3 21 -51 c21 -50 22 -50 67 -50
25 0 46 2 46 3 0 2 -17 39 -38 83 -21 43 -65 141 -97 217 l-58 137 -41 0 -42
0 -59 -132z m143 -60 l31 -78 -75 0 c-41 0 -74 2 -74 4 0 2 9 26 21 53 11 26
27 63 35 82 8 20 18 31 23 25 4 -5 22 -44 39 -86z"/>
<path d="M9012 9654 c-57 -28 -85 -61 -107 -125 -47 -133 35 -274 173 -295 60
-9 141 11 181 44 l33 27 -26 24 -26 25 -39 -22 c-26 -15 -56 -22 -91 -22 -46
0 -56 4 -85 33 -67 67 -67 167 0 226 30 26 44 31 86 31 34 0 64 -7 90 -22 l39
-22 26 25 25 24 -30 27 c-60 54 -166 63 -249 22z"/>
<path d="M9472 9669 c-46 -14 -118 -88 -131 -135 -23 -82 -3 -182 47 -237 73
-81 266 -83 316 -5 8 14 6 22 -11 39 l-21 22 -35 -22 c-52 -32 -126 -29 -168
6 -109 92 -57 263 81 263 26 0 61 -8 82 -20 l37 -20 28 25 28 25 -29 24 c-51
43 -145 57 -224 35z"/>
<path d="M9887 9673 l-97 -4 2 -212 3 -212 163 -3 163 -3 -3 33 -3 33 -117 3
-118 3 0 54 0 55 93 0 c50 0 98 4 105 9 8 5 12 21 10 37 l-3 29 -102 3 -103 3
0 49 0 49 113 3 112 3 0 35 0 35 -60 1 c-33 0 -104 -1 -158 -3z"/>
<path d="M10250 9658 c-29 -15 -52 -36 -65 -60 -18 -34 -19 -40 -5 -80 17 -50
60 -78 145 -97 71 -16 100 -39 92 -73 -12 -48 -105 -56 -190 -17 -30 14 -57
-1 -57 -31 0 -24 16 -35 79 -54 131 -38 227 -4 250 90 20 79 -17 122 -129 150
-36 9 -75 22 -87 30 -26 17 -30 55 -8 74 25 21 97 24 140 6 39 -17 40 -16 57
5 10 11 18 25 18 30 0 22 -55 42 -123 46 -61 4 -79 1 -117 -19z"/>
<path d="M10695 9665 c-57 -20 -110 -81 -130 -150 -19 -63 -15 -107 15 -165
79 -153 316 -159 400 -10 20 36 25 59 25 116 0 61 -4 77 -30 120 -55 89 -173
127 -280 89z m191 -109 c58 -67 54 -158 -11 -215 -31 -27 -43 -31 -91 -31 -50
0 -58 3 -97 39 -42 39 -42 40 -42 111 0 70 1 72 39 107 37 34 40 35 104 31 61
-4 67 -7 98 -42z"/>
<path d="M11144 9664 c-48 -23 -75 -58 -80 -101 -9 -72 41 -122 143 -142 32
-6 69 -18 81 -27 24 -17 29 -53 10 -72 -18 -18 -116 -15 -171 5 -42 15 -49 15
-58 3 -28 -44 26 -87 123 -97 105 -11 188 34 202 110 14 74 -29 117 -142 147
-85 21 -102 33 -102 70 0 48 73 65 150 34 47 -19 70 -8 70 33 0 18 -9 28 -35
39 -45 19 -151 18 -191 -2z"/>
<path d="M5050 9455 l0 -215 46 0 46 0 -4 140 c-1 77 -1 140 2 139 3 0 39 -44
80 -96 131 -167 148 -184 184 -181 17 2 31 9 30 16 -1 6 -2 102 -2 212 l-2
200 -41 0 -40 0 3 -140 c2 -77 0 -139 -4 -138 -9 4 -196 236 -209 259 -7 14
-21 19 -49 19 l-40 0 0 -215z"/>
</g>
</svg>
