<?xml version="1.0" standalone="no"?>
<!DOCTYPE svg PUBLIC "-//W3C//DTD SVG 20010904//EN"
 "http://www.w3.org/TR/2001/REC-SVG-20010904/DTD/svg10.dtd">
<svg version="1.0" xmlns="http://www.w3.org/2000/svg"
 width="1080.000000pt" height="1074.000000pt" viewBox="0 0 1080.000000 1074.000000"
 preserveAspectRatio="xMidYMid meet">

<g transform="translate(0.000000,1074.000000) scale(0.100000,-0.100000)"
fill="#000000" stroke="none">
<path d="M6304 7253 c-3 -13 -10 -23 -14 -23 -15 0 -83 -156 -97 -224 -18 -85
-7 -133 47 -218 42 -64 56 -96 65 -153 l7 -40 15 50 c17 61 27 82 78 165 39
62 40 67 38 145 -1 81 -7 101 -65 221 -10 22 -30 53 -43 70 -24 29 -25 29 -31
7z"/>
<path d="M7375 6980 c27 -12 43 -12 25 0 -8 5 -22 9 -30 9 -10 0 -8 -3 5 -9z"/>
<path d="M7450 6957 c30 -13 93 -40 138 -58 17 -8 32 -17 32 -21 0 -5 7 -8 15
-8 9 0 21 -5 28 -10 7 -6 41 -29 77 -51 91 -57 167 -116 220 -170 77 -78 138
-147 151 -171 7 -13 15 -25 19 -28 12 -8 58 -94 81 -151 34 -86 48 -158 49
-251 0 -98 -16 -171 -55 -247 -14 -29 -24 -56 -20 -59 3 -4 9 -2 13 4 10 15
77 44 100 44 25 0 38 34 53 144 12 79 4 155 -27 291 -12 53 -82 195 -130 262
-59 83 -178 202 -245 245 -14 9 -33 23 -40 30 -14 12 -25 19 -81 51 -13 6 -25
14 -28 17 -8 8 -134 70 -143 70 -4 0 -26 9 -50 19 -51 24 -160 61 -173 60 -5
0 2 -5 16 -12z"/>
<path d="M5947 6830 c-81 -40 -109 -110 -90 -224 6 -41 66 -111 113 -134 50
-24 128 -20 158 8 42 40 41 100 -4 145 -30 30 -53 32 -84 5 -18 -15 -21 -27
-18 -60 3 -36 2 -39 -9 -24 -24 33 -16 80 18 108 36 31 84 34 132 9 37 -19 50
-34 74 -85 12 -28 23 -38 40 -38 30 0 30 25 -1 111 -32 89 -39 101 -81 138
-72 63 -172 79 -248 41z"/>
<path d="M6495 6826 c-84 -38 -139 -125 -160 -248 -5 -35 -4 -38 18 -38 19 0
28 9 41 39 21 54 75 93 134 98 54 6 86 -14 97 -60 9 -33 -1 -77 -17 -77 -9 0
-9 3 0 12 19 19 14 43 -14 72 -34 33 -46 33 -85 -2 -42 -37 -44 -102 -5 -141
23 -22 34 -26 88 -24 35 1 64 6 66 12 2 6 9 11 15 11 19 0 63 43 86 83 28 50
29 143 1 197 -44 85 -159 114 -265 66z"/>
<path d="M3103 6720 c-18 -17 -36 -30 -40 -30 -8 0 -182 -168 -234 -226 -14
-16 -36 -45 -49 -64 -14 -19 -30 -41 -37 -48 -7 -7 -13 -17 -13 -22 0 -5 -6
-15 -14 -23 -28 -28 -108 -210 -134 -305 -21 -80 -26 -119 -26 -227 -1 -81 4
-149 13 -180 25 -92 54 -170 72 -197 11 -14 19 -30 19 -35 0 -4 11 -21 25 -37
14 -16 25 -33 25 -37 0 -14 156 -165 205 -199 28 -18 52 -37 55 -40 10 -14
164 -103 267 -154 152 -76 346 -150 513 -196 25 -7 55 -16 68 -21 13 -5 32 -9
43 -9 10 0 27 -4 37 -9 16 -9 132 -35 237 -52 28 -4 77 -13 110 -19 33 -6 78
-13 100 -16 146 -17 222 -24 313 -29 l102 -6 0 245 0 244 -87 7 c-49 3 -107
10 -130 15 -23 6 -58 10 -77 10 -19 0 -56 4 -83 10 -26 5 -82 14 -123 20 -127
20 -316 60 -420 90 -125 36 -166 49 -248 79 -115 42 -302 134 -310 154 -2 4
-10 7 -17 7 -8 0 -18 6 -22 13 -4 6 -24 24 -43 38 -45 34 -125 114 -159 159
-14 19 -28 37 -31 40 -3 3 -23 37 -43 77 -44 83 -72 168 -88 261 -13 74 -7
258 11 312 6 19 15 51 21 70 13 43 51 124 62 128 4 2 7 8 7 13 0 12 77 128 99
149 27 26 65 70 60 70 -2 0 -18 -14 -36 -30z"/>
<path d="M6276 6523 c-29 -5 -56 -24 -56 -41 0 -17 38 -43 73 -49 71 -11 142
37 106 72 -16 15 -81 24 -123 18z"/>
<path d="M2970 6115 l0 -265 75 0 75 0 0 95 0 95 65 0 c61 0 68 -2 107 -37 24
-21 50 -45 58 -53 8 -9 37 -34 64 -58 l49 -42 108 0 c60 0 109 3 109 8 -1 4
-24 26 -53 50 -112 92 -132 113 -116 123 8 5 27 9 42 9 37 0 80 23 106 56 17
22 21 41 21 106 0 78 -8 108 -38 138 -39 38 -57 40 -368 40 l-304 0 0 -265z
m565 95 c0 -13 -31 -15 -207 -18 -204 -2 -208 -2 -208 18 0 20 4 20 208 18
176 -3 207 -5 207 -18z"/>
<path d="M3796 6361 c-58 -34 -71 -78 -71 -246 0 -174 10 -207 74 -243 37 -21
51 -22 278 -22 193 0 246 3 270 15 71 35 93 95 93 249 0 121 -8 162 -41 211
-35 51 -61 55 -330 54 -212 0 -248 -3 -273 -18z m473 -145 c18 -22 25 -115 12
-163 -15 -53 -25 -56 -230 -51 -183 4 -181 2 -181 119 0 112 -6 109 209 109
143 0 181 -3 190 -14z"/>
<path d="M4548 6364 c-14 -8 -37 -31 -50 -52 -22 -35 -23 -47 -23 -197 0 -154
1 -161 25 -197 44 -65 61 -68 334 -68 236 0 244 1 277 23 46 31 69 80 69 150
l0 57 -70 0 c-60 0 -70 -3 -70 -17 0 -10 -7 -27 -16 -38 -14 -19 -27 -20 -200
-20 -153 0 -186 3 -194 15 -5 8 -10 51 -10 96 0 116 -4 114 208 114 163 0 172
-1 192 -22 11 -12 20 -28 20 -35 0 -9 19 -13 70 -13 l70 0 0 53 c0 64 -24 114
-69 144 -33 22 -40 23 -285 22 -195 -1 -257 -4 -278 -15z"/>
<path d="M5220 6115 l0 -265 360 0 360 0 0 75 0 75 -290 0 -290 0 0 190 0 190
-70 0 -70 0 0 -265z"/>
<path d="M6225 6323 c-16 -32 -39 -74 -50 -93 -12 -19 -48 -87 -81 -150 -32
-63 -61 -117 -64 -120 -6 -6 -50 -99 -50 -105 0 -3 40 -5 89 -5 l89 0 16 40
16 41 138 -3 137 -3 20 -37 20 -38 88 0 c48 0 87 1 87 3 0 8 -63 132 -69 137
-4 3 -21 35 -38 71 -17 37 -36 70 -42 74 -6 3 -11 15 -11 25 0 10 -3 20 -8 22
-4 2 -23 32 -41 68 -73 138 -58 125 -142 128 l-74 3 -30 -58z m115 -169 c0 -8
4 -14 9 -14 5 0 11 -8 15 -17 3 -10 9 -24 12 -30 4 -10 -8 -13 -45 -13 -28 0
-51 2 -51 5 0 2 10 25 22 49 20 43 38 52 38 20z"/>
<path d="M6720 6115 l0 -265 75 0 75 0 0 134 0 134 93 -46 c50 -26 94 -50 95
-54 2 -4 8 -8 14 -8 9 0 126 -54 268 -124 36 -18 73 -35 83 -39 16 -6 17 11
17 263 l0 270 -75 0 -75 0 0 -130 c0 -77 -4 -130 -10 -130 -5 0 -35 13 -67 29
-32 16 -96 47 -143 69 -47 21 -143 67 -213 101 -71 33 -130 61 -133 61 -2 0
-4 -119 -4 -265z"/>
<path d="M7480 6109 l0 -271 303 4 c294 3 303 4 333 25 64 45 69 62 69 228 0
170 -4 191 -42 231 -48 50 -75 54 -381 54 l-282 0 0 -271z m542 94 c14 -13 18
-31 18 -92 0 -42 -4 -81 -8 -87 -19 -29 -56 -34 -231 -34 l-181 0 0 115 0 115
192 0 c164 0 194 -2 210 -17z"/>
<path d="M8250 5707 c-24 -13 -36 -20 -120 -72 -51 -31 -140 -85 -175 -105
-16 -9 -54 -31 -83 -49 -29 -17 -57 -31 -61 -31 -5 0 -11 -6 -14 -12 -2 -7
-28 -24 -56 -38 -28 -14 -51 -28 -51 -32 0 -5 -7 -8 -15 -8 -8 0 -15 -4 -15
-9 0 -5 -8 -11 -17 -14 -10 -4 -37 -18 -60 -32 -24 -14 -60 -35 -81 -47 -162
-95 -232 -142 -237 -159 -4 -10 -11 -19 -16 -19 -15 0 -9 -63 10 -95 10 -16
30 -36 46 -44 53 -26 85 -17 192 52 24 15 47 27 53 27 5 0 10 4 10 9 0 5 8 11
18 14 18 6 43 21 180 106 46 28 88 51 93 51 5 0 9 5 9 10 0 6 4 10 9 10 5 0
39 18 75 40 36 22 70 40 76 40 5 0 10 5 10 10 0 6 7 10 15 10 8 0 15 4 15 9 0
5 8 11 18 14 9 4 40 20 67 37 28 17 60 35 73 40 12 5 22 13 22 18 0 5 23 19
50 32 28 13 50 27 50 32 0 4 6 8 13 8 22 0 47 34 47 62 0 29 -33 97 -62 128
-22 23 -52 25 -88 7z m22 -84 c-6 -21 -17 -59 -24 -86 -9 -36 -19 -50 -40 -60
-16 -6 -28 -15 -28 -19 0 -5 -5 -8 -12 -8 -6 0 -20 -7 -30 -17 -26 -23 -30
-14 -17 43 6 27 13 63 16 81 4 23 14 36 37 47 17 8 47 26 66 39 19 14 37 23
39 21 2 -2 -1 -21 -7 -41z m-292 -159 c0 -25 -44 -164 -51 -164 -4 0 -35 -16
-68 -35 -48 -26 -59 -30 -51 -15 5 10 10 30 10 44 0 14 4 27 9 30 4 3 11 24
15 45 4 28 13 44 29 52 12 7 24 15 27 19 6 9 62 39 73 40 4 0 7 -7 7 -16z
m-301 -196 c-26 -128 -28 -132 -116 -182 -48 -27 -51 -23 -33 43 5 20 12 49
15 64 6 32 26 51 93 89 26 15 48 27 48 28 1 0 -2 -19 -7 -42z"/>
<path d="M5371 5673 c-17 -21 -31 -46 -31 -55 0 -15 -9 -18 -50 -18 -40 0 -56
-5 -74 -23 -65 -65 -71 -67 -189 -67 -103 0 -112 -2 -144 -26 -64 -49 -63 -38
-63 -655 0 -545 1 -560 21 -603 16 -34 31 -49 65 -65 42 -20 59 -21 550 -21
501 0 507 0 545 22 25 14 45 36 59 65 19 41 20 61 20 602 0 611 1 600 -59 654
-30 26 -34 27 -147 27 l-117 0 -40 42 c-36 38 -45 42 -98 46 -47 4 -59 8 -59
21 0 9 -14 33 -31 54 -28 33 -35 37 -79 37 -44 0 -51 -4 -79 -37z m117 -44
c25 -40 -17 -91 -57 -70 -26 14 -32 37 -19 66 14 32 58 34 76 4z m110 -161
c-3 -23 -6 -23 -150 -26 l-148 -3 0 26 0 25 151 0 c150 0 150 0 147 -22z m362
-128 l25 -19 3 -483 c2 -266 0 -502 -3 -526 -5 -34 -13 -47 -38 -63 -30 -18
-53 -19 -392 -18 -259 0 -353 3 -335 11 14 5 45 18 70 28 130 53 130 53 130
78 0 13 -4 21 -9 18 -7 -5 -37 73 -29 78 2 1 20 10 41 20 33 15 52 46 27 46
-5 0 -10 16 -10 36 0 19 -5 55 -11 79 -6 25 -8 52 -5 61 6 15 8 15 32 -1 14
-9 27 -15 28 -13 2 2 13 24 26 51 13 26 30 47 39 47 9 0 41 -9 71 -20 30 -11
66 -20 80 -19 l25 0 -24 17 c-13 9 -44 24 -70 33 -89 32 -100 38 -117 64 -15
23 -15 27 -2 43 30 34 50 88 55 148 l6 61 -54 13 c-72 18 -171 18 -241 1 l-58
-14 0 -43 c0 -24 5 -56 11 -71 22 -55 34 -78 47 -92 20 -21 -5 -81 -34 -81 -8
0 -33 -8 -57 -19 -23 -10 -57 -24 -75 -31 -37 -14 -80 -61 -86 -93 -2 -12 -9
-60 -14 -107 -6 -47 -16 -126 -23 -177 -11 -82 -11 -94 4 -117 23 -34 22 -36
-15 -25 -66 19 -63 -9 -66 527 -2 268 0 502 3 520 3 17 16 41 27 52 21 19 36
20 507 20 464 0 487 -1 511 -20z m-672 -292 c9 -9 45 -13 107 -13 62 0 98 4
106 13 20 19 39 14 39 -11 0 -20 -23 -79 -49 -126 -27 -51 -106 -68 -156 -35
-44 29 -105 184 -73 184 8 0 20 -6 26 -12z m89 -225 c17 -3 46 0 64 6 27 9 34
8 45 -7 17 -22 17 -32 -1 -76 l-16 -37 -28 30 c-36 39 -47 39 -86 1 l-32 -31
-18 41 c-15 33 -16 45 -6 66 8 19 16 24 29 19 9 -4 31 -9 49 -12z m-97 -93 c0
-8 9 -26 19 -40 19 -24 20 -24 39 -7 25 23 35 10 28 -35 -3 -18 -10 -67 -17
-109 l-11 -77 -67 -16 c-36 -9 -69 -16 -73 -16 -5 0 -8 29 -8 65 0 51 -3 65
-15 65 -12 0 -15 -15 -15 -75 0 -69 -2 -75 -20 -75 -19 0 -38 -25 -28 -36 6
-5 91 16 158 40 68 24 76 21 93 -30 14 -44 14 -46 -7 -54 -11 -4 -52 -20 -91
-35 -38 -14 -77 -30 -86 -35 -9 -5 -37 -11 -63 -15 -35 -6 -52 -3 -72 10 -26
17 -27 19 -21 99 13 178 28 291 43 322 16 33 47 53 138 85 47 16 51 16 63 1 7
-10 13 -24 13 -32z"/>
<path d="M5385 5312 c-6 -4 -41 -18 -78 -31 -79 -26 -137 -58 -137 -75 0 -24
54 -86 70 -79 56 23 260 23 304 0 16 -8 23 -5 38 14 10 13 22 29 28 36 28 34
5 56 -105 98 -38 15 -78 31 -87 36 -21 11 -22 11 -33 1z m48 -64 c2 -7 0 -25
-6 -40 -16 -48 -67 -30 -67 24 0 25 3 28 34 28 19 0 36 -6 39 -12z"/>
<path d="M5660 5125 l0 -45 45 0 45 0 0 45 0 45 -45 0 -45 0 0 -45z m80 5 c0
-16 -4 -30 -8 -30 -5 0 -8 10 -8 22 1 35 -32 36 -37 1 -4 -27 -4 -27 -6 5 -1
29 2 32 29 32 27 0 30 -3 30 -30z"/>
<path d="M5785 5160 c-3 -6 1 -7 9 -4 18 7 21 14 7 14 -6 0 -13 -4 -16 -10z"/>
<path d="M5840 5125 l0 -45 45 0 45 0 0 45 0 45 -45 0 -45 0 0 -45z m80 5 c0
-27 -3 -30 -30 -30 -27 0 -30 3 -30 30 0 27 3 30 30 30 27 0 30 -3 30 -30z"/>
<path d="M5870 5130 c0 -13 7 -20 20 -20 13 0 20 7 20 20 0 13 -7 20 -20 20
-13 0 -20 -7 -20 -20z"/>
<path d="M5786 5124 c-4 -9 -4 -19 -1 -22 3 -3 5 0 5 6 0 7 5 12 11 12 5 0 8
-4 5 -9 -3 -5 1 -11 9 -15 18 -7 20 15 3 32 -16 16 -25 15 -32 -4z"/>
<path d="M5760 5084 c0 -13 -26 -18 -85 -15 -11 0 -14 -2 -7 -5 6 -3 12 -14
12 -24 0 -10 8 -21 18 -23 9 -2 5 -3 -10 -1 -16 2 -28 -1 -28 -6 0 -6 21 -9
47 -8 28 1 48 -3 51 -10 5 -17 32 -15 38 3 4 8 14 15 23 15 13 0 13 -2 2 -9
-10 -6 -10 -13 -3 -28 9 -15 7 -19 -8 -19 -15 0 -17 3 -7 15 10 12 8 13 -13 6
-33 -10 -37 -14 -21 -24 11 -7 11 -10 0 -15 -8 -3 -3 -3 10 0 25 7 52 12 63
13 4 1 4 8 1 18 -4 11 -3 14 6 9 7 -5 9 -16 5 -28 -4 -14 -2 -18 5 -14 6 4 11
3 11 -3 0 -5 -8 -15 -17 -20 -16 -9 -15 -10 5 -11 13 0 36 10 50 21 l27 22
-30 -6 c-16 -4 -24 -4 -17 -1 6 3 12 10 12 15 0 6 -5 7 -12 3 -7 -4 -8 -3 -4
4 4 7 2 12 -3 12 -6 0 -11 5 -11 10 0 6 12 4 28 -4 l28 -15 0 51 c-1 28 -6 53
-11 55 -13 4 -13 -60 0 -69 5 -4 6 -10 2 -15 -11 -10 -26 17 -20 34 7 18 -31
50 -68 58 -16 4 -29 10 -29 14 0 4 -9 7 -20 8 -11 1 -20 -4 -20 -13z m40 -21
c0 4 12 -1 27 -10 15 -10 29 -17 30 -15 2 1 11 -2 21 -7 16 -10 16 -10 0 -11
-10 0 -18 -6 -19 -12 0 -7 -5 -3 -12 10 -7 15 -17 22 -28 19 -13 -4 -16 0 -11
12 5 14 4 14 -11 2 -21 -17 -32 -9 -23 16 6 15 8 15 16 3 6 -8 10 -12 10 -7z
m-49 -38 c5 4 9 1 9 -4 0 -6 -6 -11 -12 -11 -19 1 -48 25 -48 40 0 9 8 5 21
-8 11 -12 24 -20 30 -17z m9 25 c0 -5 -7 -10 -15 -10 -8 0 -15 5 -15 10 0 6 7
10 15 10 8 0 15 -4 15 -10z"/>
<path d="M5660 4945 l0 -45 45 0 45 0 0 45 0 45 -45 0 -45 0 0 -45z m80 -5 c0
-27 -3 -30 -30 -30 -16 0 -30 5 -30 10 0 6 9 10 20 10 27 0 25 28 -2 33 -17 3
-14 5 10 6 29 1 32 -2 32 -29z"/>
<path d="M5800 4915 c0 -16 16 -20 24 -6 3 5 -1 11 -9 15 -9 3 -15 0 -15 -9z"/>
<path d="M5760 4910 c0 -5 7 -10 15 -10 8 0 15 5 15 10 0 6 -7 10 -15 10 -8 0
-15 -4 -15 -10z"/>
<path d="M5537 4673 c-8 -16 -24 -71 -36 -123 -37 -161 -43 -184 -53 -213 -9
-23 -8 -32 6 -45 14 -14 38 -16 163 -14 113 2 151 6 163 17 9 8 23 15 31 15
26 1 44 24 57 73 16 64 15 85 -6 98 -18 11 -18 14 -1 78 23 83 24 127 3 135
-9 3 -83 6 -165 6 l-148 0 -14 -27z m313 -20 c-1 -10 -7 -36 -15 -58 -8 -22
-15 -50 -15 -63 0 -16 -8 -26 -29 -33 -31 -11 -46 -38 -56 -105 -5 -31 -2 -45
9 -57 9 -9 16 -18 16 -21 0 -3 -64 -6 -141 -6 l-141 0 7 33 c4 17 11 48 15 67
4 19 21 86 36 147 l29 113 143 0 c129 0 142 -2 142 -17z m-11 -197 c6 -7 9
-22 5 -32 -21 -65 -27 -74 -51 -74 -29 0 -39 21 -25 58 6 15 13 35 16 45 6 20
39 23 55 3z"/>
<path d="M5620 4560 c0 -5 -9 -10 -20 -10 -18 0 -20 -7 -20 -55 l0 -56 78 3
77 3 3 48 c3 38 0 48 -15 53 -10 3 -26 10 -35 15 -23 12 -68 12 -68 -1z m65
-49 c9 -28 -5 -52 -28 -49 -29 4 -44 32 -28 52 18 22 48 20 56 -3z"/>
<path d="M5634 4509 c-10 -17 23 -46 37 -32 7 7 9 19 6 27 -7 18 -33 21 -43 5z"/>
<path d="M7134 5306 c-57 -32 -54 -9 -54 -397 l0 -359 -60 0 -60 0 0 -40 0
-40 329 0 329 0 6 31 c3 17 6 35 6 40 0 5 -25 9 -55 9 l-55 0 0 195 c0 107 -4
195 -8 195 -4 0 -12 -4 -17 -9 -59 -56 -175 -69 -232 -25 -18 14 -40 39 -49
56 -20 39 -20 118 0 156 14 28 88 82 199 146 27 15 46 33 44 39 -5 17 -294 20
-323 3z"/>
<path d="M6950 5123 c-53 -13 -85 -19 -235 -42 -221 -34 -324 -47 -472 -57
l-103 -7 0 -209 0 -210 53 6 c79 10 178 27 211 37 16 5 44 9 62 9 18 0 35 4
38 9 3 5 23 11 43 14 92 12 291 65 431 115 l42 15 0 168 c0 93 -3 169 -7 168
-5 -1 -33 -8 -63 -16z"/>
<path d="M8027 5063 c-45 -12 -87 -70 -87 -121 0 -18 13 -43 36 -70 33 -39 39
-42 86 -42 45 0 54 4 84 37 28 30 34 45 34 80 0 36 -6 50 -33 78 -32 33 -81
49 -120 38z m66 -35 c38 -20 47 -36 47 -82 0 -38 -4 -48 -29 -65 -36 -26 -57
-26 -98 -1 -30 18 -33 25 -33 66 0 48 12 68 52 83 31 13 36 13 61 -1z"/>
<path d="M8010 4950 c0 -47 3 -60 15 -60 9 0 15 9 15 25 0 14 4 25 8 25 5 0
15 -11 22 -25 8 -14 22 -25 34 -25 13 0 16 3 9 8 -15 10 -18 31 -8 66 9 34 -4
46 -57 46 l-38 0 0 -60z m70 25 c0 -8 -9 -15 -20 -15 -11 0 -20 7 -20 15 0 8
9 15 20 15 11 0 20 -7 20 -15z"/>
<path d="M3640 3984 c-87 -16 -160 -103 -160 -193 0 -96 58 -179 142 -202 54
-14 145 -5 187 18 31 18 31 19 31 101 l0 82 -40 0 -40 0 0 -55 c0 -43 -4 -56
-19 -65 -41 -22 -105 -5 -143 36 -42 47 -25 156 29 185 34 18 105 15 138 -7
26 -17 27 -17 52 9 23 22 25 28 13 42 -30 36 -124 60 -190 49z"/>
<path d="M3903 3858 c5 -134 14 -198 28 -198 5 0 9 -6 9 -14 0 -40 101 -74
182 -62 42 6 98 43 98 64 0 6 5 12 12 14 8 3 13 51 16 161 l4 157 -46 0 -46 0
0 -126 c0 -125 -7 -156 -39 -181 -27 -21 -66 -15 -95 13 -25 26 -26 29 -26
160 l0 134 -51 0 -50 0 4 -122z"/>
<path d="M4413 3913 c-40 -89 -133 -311 -133 -320 0 -2 21 -3 47 -1 43 3 47 5
58 38 l12 35 91 3 c76 2 92 0 92 -12 0 -8 5 -27 12 -41 10 -22 17 -25 60 -25
26 0 48 2 48 5 0 2 -11 28 -24 57 -13 29 -38 87 -56 128 -18 41 -38 88 -46
104 -8 16 -14 35 -14 43 0 7 -4 13 -10 13 -5 0 -10 9 -10 20 0 17 -7 20 -48
20 l-48 0 -31 -67z m97 -83 c8 -28 18 -53 22 -56 4 -3 8 -12 8 -20 0 -10 -14
-14 -54 -14 -51 0 -54 1 -49 23 3 12 9 27 13 32 3 6 12 29 20 52 7 23 16 41
20 38 3 -2 12 -27 20 -55z"/>
<path d="M4740 3785 l0 -195 45 0 45 0 0 56 0 55 38 -3 c33 -3 40 -9 67 -55
l30 -52 54 -1 c52 0 53 1 38 18 -10 10 -17 22 -17 25 0 4 -11 25 -25 47 -24
39 -24 40 -5 50 50 27 67 138 29 191 -32 45 -77 59 -195 59 l-104 0 0 -195z
m224 83 c6 -18 6 -38 0 -55 -9 -26 -14 -28 -72 -31 l-62 -3 0 61 0 61 62 -3
c58 -3 63 -5 72 -30z"/>
<path d="M5120 3785 l0 -195 128 0 c122 0 130 1 170 27 54 36 82 93 82 171 0
66 -16 107 -58 144 -43 38 -85 48 -208 48 l-114 0 0 -195z m249 96 c54 -39 59
-136 11 -183 -21 -19 -82 -38 -127 -38 l-33 0 0 120 0 120 61 0 c44 0 68 -5
88 -19z"/>
<path d="M5560 3785 l0 -195 50 0 50 0 0 195 0 195 -50 0 -50 0 0 -195z"/>
<path d="M5820 3903 c-31 -74 -39 -95 -76 -180 -62 -143 -61 -133 -10 -133 47
0 62 11 68 50 3 24 6 25 91 28 l88 3 16 -41 c16 -39 17 -40 64 -40 42 0 47 2
42 20 -3 11 -9 23 -14 26 -5 3 -9 12 -9 20 0 8 -9 34 -20 56 -11 23 -20 48
-20 55 0 7 -4 13 -10 13 -5 0 -10 7 -10 15 0 13 -18 57 -59 145 -15 32 -21 35
-63 38 l-46 3 -32 -78z m100 -73 c0 -9 4 -20 9 -25 4 -6 11 -22 15 -37 6 -28
6 -28 -48 -28 l-55 0 18 43 c10 23 21 55 25 72 7 29 8 29 22 11 8 -11 14 -27
14 -36z"/>
<path d="M6395 3944 c-8 -20 -15 -38 -15 -40 0 -2 -13 -33 -30 -69 -16 -36
-30 -69 -30 -73 0 -5 -9 -28 -21 -52 -12 -24 -27 -60 -35 -82 l-13 -38 40 0
c45 0 65 15 71 51 3 23 6 24 95 27 l92 3 11 -41 c11 -40 11 -40 60 -40 l50 0
-21 53 c-11 28 -31 74 -45 101 -13 28 -24 53 -24 58 0 6 -48 117 -69 158 -5 9
-26 16 -54 18 -45 3 -47 2 -62 -34z m109 -178 c6 -26 6 -26 -49 -26 -30 0 -55
2 -55 5 0 3 8 22 19 43 10 20 21 51 26 67 l7 30 23 -47 c12 -25 25 -58 29 -72z"/>
<path d="M6710 3785 l0 -195 45 0 45 0 0 55 0 55 65 0 c73 0 112 15 144 56 55
70 29 167 -57 213 -12 6 -70 11 -131 11 l-111 0 0 -195z m218 103 c7 -7 12
-28 12 -48 0 -49 -15 -60 -82 -60 l-58 0 0 60 0 60 58 0 c32 0 63 -5 70 -12z"/>
<path d="M7090 3785 l0 -195 45 0 45 0 0 55 0 55 68 0 c78 0 120 20 152 72 39
64 16 146 -52 188 -28 17 -51 20 -145 20 l-113 0 0 -195z m230 83 c13 -25 13
-31 0 -55 -14 -25 -22 -28 -78 -31 l-62 -3 0 61 0 61 62 -3 c56 -3 64 -6 78
-30z"/>
<path d="M3767 3410 c-102 -81 -1 -231 118 -174 32 15 35 19 22 31 -11 12 -19
12 -35 4 -49 -26 -112 4 -112 55 0 50 79 94 111 61 12 -12 18 -12 32 -2 16 11
15 14 -7 29 -35 22 -98 21 -129 -4z"/>
<path d="M3967 3407 c-20 -16 -29 -34 -33 -68 -6 -43 -4 -50 25 -80 27 -28 39
-33 79 -33 70 0 102 31 102 98 0 28 -6 58 -13 67 -34 44 -115 53 -160 16z
m118 -32 c14 -13 25 -36 25 -50 0 -72 -116 -90 -134 -20 -20 78 54 125 109 70z"/>
<path d="M4180 3330 c0 -93 1 -100 20 -100 18 0 20 7 20 60 0 33 3 60 6 60 7
0 20 -15 69 -80 17 -21 38 -39 48 -40 15 0 17 11 17 100 0 93 -1 100 -20 100
-18 0 -20 -7 -20 -62 l-1 -63 -27 32 c-15 17 -38 45 -52 62 -14 17 -33 31 -42
31 -16 0 -18 -11 -18 -100z"/>
<path d="M4390 3415 c0 -10 11 -15 35 -15 l35 0 0 -85 c0 -78 2 -85 20 -85 18
0 20 7 20 85 l0 85 30 0 c20 0 30 5 30 15 0 12 -16 15 -85 15 -69 0 -85 -3
-85 -15z"/>
<path d="M4590 3330 c0 -93 1 -100 20 -100 16 0 20 7 20 30 0 25 4 30 24 30
16 0 32 -11 46 -30 20 -28 60 -42 60 -20 0 6 -3 10 -8 10 -4 0 -13 9 -20 20
-10 17 -9 23 8 40 29 29 26 74 -6 99 -20 16 -41 21 -85 21 l-59 0 0 -100z
m108 64 c16 -5 22 -14 22 -34 0 -30 -15 -40 -61 -40 -27 0 -29 2 -29 40 0 35
3 40 23 40 12 0 32 -3 45 -6z"/>
<path d="M4818 3401 c-47 -52 -48 -98 -5 -145 65 -70 187 -24 187 70 0 61 -45
104 -110 104 -37 0 -50 -6 -72 -29z m129 -23 c7 -6 13 -28 13 -49 0 -84 -115
-97 -136 -14 -7 26 19 71 44 78 22 6 63 -2 79 -15z"/>
<path d="M5040 3324 l0 -107 46 7 c26 3 57 6 70 6 15 0 24 6 24 15 0 11 -12
15 -50 15 l-50 0 0 85 c0 78 -2 85 -20 85 -19 0 -20 -7 -20 -106z"/>
<path d="M5290 3330 l0 -100 68 0 c56 0 71 4 95 24 23 20 27 31 27 72 -1 77
-35 104 -130 104 l-60 0 0 -100z m135 50 c9 -7 15 -29 15 -51 0 -45 -27 -69
-77 -69 l-33 0 0 71 0 72 40 -6 c23 -3 47 -11 55 -17z"/>
<path d="M5520 3330 l0 -100 80 0 c64 0 80 3 80 15 0 12 -13 15 -60 15 -57 0
-60 1 -60 25 0 23 3 25 50 25 43 0 50 3 50 20 0 17 -7 20 -50 20 -47 0 -50 2
-50 25 0 24 3 25 55 25 42 0 55 3 55 15 0 12 -15 15 -75 15 l-75 0 0 -100z"/>
<path d="M5827 3368 c-16 -35 -36 -80 -47 -100 l-18 -38 23 0 c15 0 26 7 30
20 5 17 15 20 60 20 45 0 55 -3 60 -20 5 -17 45 -30 45 -15 0 5 -58 132 -75
165 -25 47 -48 37 -78 -32z m69 -33 c21 -29 17 -35 -21 -35 -40 0 -42 5 -17
56 13 29 18 33 21 18 2 -10 10 -28 17 -39z"/>
<path d="M6045 3418 c-39 -23 -49 -40 -49 -89 -1 -42 3 -53 28 -76 36 -33 112
-38 141 -9 24 24 3 37 -34 23 -84 -31 -139 71 -65 120 21 14 31 15 56 5 50
-19 80 5 33 26 -33 15 -84 15 -110 0z"/>
<path d="M6245 3418 c-34 -19 -44 -41 -45 -91 0 -38 5 -53 24 -72 42 -42 139
-40 154 3 3 10 -7 11 -47 6 -65 -8 -91 10 -91 67 0 53 35 77 87 61 54 -17 76
4 28 26 -33 15 -84 15 -110 0z"/>
<path d="M6420 3330 l0 -100 75 0 c60 0 75 3 75 15 0 12 -13 15 -55 15 -52 0
-55 1 -55 25 0 23 3 25 50 25 43 0 50 3 50 20 0 17 -7 20 -50 20 -47 0 -50 2
-50 25 0 23 3 25 50 25 38 0 50 4 50 15 0 12 -14 15 -70 15 l-70 0 0 -100z"/>
<path d="M6618 3416 c-11 -8 -18 -26 -18 -45 0 -27 6 -34 38 -48 94 -40 97
-44 61 -64 -16 -8 -28 -8 -46 0 -35 16 -53 13 -53 -8 0 -16 9 -21 43 -26 119
-18 160 87 45 116 -40 11 -48 17 -46 34 3 17 10 20 51 18 33 -1 47 3 47 12 0
27 -91 35 -122 11z"/>
<path d="M6811 3404 c-26 -22 -31 -33 -31 -72 0 -69 34 -105 99 -106 55 -1 90
22 111 75 10 24 9 35 -4 63 -33 69 -117 89 -175 40z m97 -10 c33 -9 55 -56 41
-91 -13 -34 -25 -43 -66 -43 -45 0 -65 24 -61 73 2 33 8 44 28 54 29 15 28 15
58 7z"/>
<path d="M7037 3412 c-10 -10 -17 -31 -17 -45 0 -28 5 -31 93 -66 33 -13 35
-28 4 -42 -18 -8 -33 -7 -61 5 -37 15 -37 15 -34 -6 7 -46 114 -49 143 -4 25
38 3 72 -56 87 -77 20 -61 68 17 53 26 -5 34 -3 34 9 0 32 -96 39 -123 9z"/>
</g>
</svg>
