<?xml version="1.0" standalone="no"?>
<!DOCTYPE svg PUBLIC "-//W3C//DTD SVG 20010904//EN"
 "http://www.w3.org/TR/2001/REC-SVG-20010904/DTD/svg10.dtd">
<svg version="1.0" xmlns="http://www.w3.org/2000/svg"
 width="1024.000000pt" height="1024.000000pt" viewBox="0 0 1024.000000 1024.000000"
 preserveAspectRatio="xMidYMid meet">

<g transform="translate(0.000000,1024.000000) scale(0.100000,-0.100000)"
fill="#000000" stroke="none">
<path d="M3580 7870 c0 -5 -13 -10 -28 -10 -37 0 -146 -21 -152 -30 -3 -4 -27
-13 -55 -20 -27 -7 -52 -16 -55 -20 -3 -3 -24 -14 -47 -24 -24 -11 -43 -22
-43 -26 0 -3 -16 -12 -35 -20 -19 -7 -36 -19 -39 -27 -3 -7 -12 -13 -20 -13
-9 0 -20 -9 -26 -20 -6 -11 -16 -20 -23 -20 -7 0 -20 -8 -29 -17 -8 -10 -30
-31 -47 -46 -17 -16 -31 -32 -31 -37 0 -4 -18 -27 -40 -50 -22 -23 -40 -48
-40 -55 0 -7 -6 -15 -14 -18 -8 -3 -17 -19 -21 -36 -4 -17 -10 -31 -15 -31 -5
0 -14 -16 -20 -35 -6 -19 -15 -35 -19 -35 -8 0 -41 -134 -41 -167 0 -12 -6
-23 -12 -25 -10 -4 -13 -47 -13 -173 0 -126 3 -169 13 -172 6 -3 12 -13 12
-24 0 -26 32 -153 40 -159 3 -3 12 -21 20 -40 8 -19 16 -37 19 -40 4 -3 13
-18 21 -35 8 -16 20 -35 25 -41 6 -6 19 -23 30 -39 11 -16 30 -38 43 -50 12
-12 22 -25 22 -29 0 -11 98 -106 110 -106 5 0 10 -6 10 -13 0 -8 -19 -20 -42
-27 -24 -8 -45 -17 -48 -21 -3 -3 -31 -14 -62 -23 -32 -9 -58 -20 -58 -25 0
-4 -18 -13 -40 -20 -22 -6 -40 -15 -40 -20 0 -4 -16 -13 -35 -21 -19 -8 -35
-17 -35 -20 0 -4 -18 -15 -40 -25 -22 -10 -40 -22 -40 -26 0 -4 -9 -11 -21
-14 -11 -4 -36 -22 -56 -41 -19 -19 -38 -34 -42 -34 -11 0 -211 -200 -211
-210 0 -5 -8 -15 -17 -22 -10 -7 -25 -26 -33 -43 -8 -16 -21 -34 -27 -38 -7
-4 -13 -14 -13 -22 0 -7 -6 -20 -12 -27 -7 -7 -20 -26 -28 -43 -8 -16 -18 -32
-21 -35 -3 -3 -14 -32 -24 -65 -10 -33 -22 -62 -26 -65 -5 -3 -14 -39 -21 -80
-7 -41 -17 -78 -23 -82 -15 -10 -14 -366 1 -376 7 -4 17 -26 24 -49 7 -24 17
-43 21 -43 4 0 11 -9 14 -20 9 -27 96 -116 123 -124 12 -4 22 -11 22 -15 0 -5
15 -14 33 -22 17 -7 34 -16 37 -20 6 -8 96 -39 115 -39 7 0 15 -4 17 -10 2 -5
48 -15 103 -22 55 -7 103 -16 106 -21 4 -5 106 -12 228 -15 l221 -5 0 105 0
105 -207 6 c-133 4 -209 9 -211 16 -2 6 -16 11 -32 11 -53 0 -202 31 -216 44
-8 8 -27 17 -44 21 -16 4 -30 11 -30 16 0 5 -8 12 -17 16 -26 9 -73 64 -80 93
-3 14 -11 28 -17 32 -14 9 -13 267 1 276 5 4 15 40 22 80 7 39 16 72 20 72 4
0 13 20 20 45 7 25 16 45 21 45 4 0 13 18 20 40 7 22 17 40 22 40 5 0 13 11
18 25 5 14 14 25 19 25 5 0 11 8 15 18 9 28 28 51 98 121 98 97 125 121 137
121 6 0 15 9 21 20 6 11 17 20 25 20 8 0 18 6 22 13 4 8 27 22 51 32 23 11 42
22 42 26 0 4 16 13 35 20 19 7 35 16 35 19 0 4 18 13 40 20 22 7 40 16 40 20
0 4 16 11 35 14 19 4 40 13 48 20 7 7 48 22 90 31 42 10 77 22 77 25 0 4 27
13 60 20 33 7 60 16 60 20 0 4 27 13 60 20 33 7 60 16 60 20 0 5 19 11 42 15
36 6 39 9 22 18 -10 6 -25 17 -32 24 -7 7 -24 16 -38 19 -13 3 -24 10 -24 15
0 5 -11 14 -25 19 -14 5 -25 13 -25 18 0 4 -16 14 -35 21 -19 7 -35 17 -35 22
0 5 -11 14 -25 19 -14 5 -28 17 -31 25 -4 8 -12 15 -19 15 -7 0 -23 11 -36 25
-13 13 -28 25 -32 25 -12 0 -67 57 -67 69 0 6 -8 15 -19 20 -10 6 -24 24 -31
41 -7 16 -17 30 -22 30 -5 0 -14 14 -19 30 -6 17 -14 30 -18 30 -4 0 -14 18
-21 40 -7 22 -16 40 -20 40 -4 0 -13 28 -20 63 -7 34 -17 65 -22 68 -12 8 -13
260 -1 268 5 3 14 33 21 65 6 33 15 62 20 65 5 3 14 27 22 54 7 26 17 47 22
47 4 0 14 12 21 27 6 15 22 38 35 52 12 13 22 28 22 32 0 11 82 89 92 89 5 0
17 8 27 18 36 32 50 42 76 54 14 6 25 15 25 19 0 5 23 15 52 24 28 8 55 19 58
25 3 5 41 15 83 22 42 6 77 15 77 20 0 4 52 8 115 8 63 0 115 -4 115 -8 0 -5
35 -14 77 -20 42 -7 80 -17 83 -22 3 -6 30 -17 58 -25 29 -9 52 -20 52 -24 0
-5 14 -15 32 -22 18 -7 40 -20 49 -29 9 -8 31 -26 48 -39 44 -33 101 -91 101
-102 0 -17 40 -9 52 11 7 11 17 20 23 20 5 0 21 9 35 20 14 11 36 28 49 38 21
16 22 21 11 41 -6 13 -30 40 -52 60 -23 20 -50 46 -61 59 -11 12 -25 22 -31
22 -6 0 -17 9 -24 20 -7 11 -19 20 -27 20 -8 0 -15 5 -15 10 0 6 -11 15 -25
20 -14 5 -25 13 -25 18 0 4 -25 16 -55 27 -30 10 -55 21 -55 25 0 3 -22 12
-49 19 -28 7 -51 17 -53 22 -2 5 -45 15 -96 21 -50 7 -92 16 -92 20 0 4 -56 8
-125 8 -77 0 -125 -4 -125 -10z"/>
<path d="M6420 7872 c0 -4 -41 -13 -92 -20 -51 -7 -95 -16 -98 -20 -3 -4 -25
-14 -50 -22 -25 -8 -47 -17 -50 -20 -3 -3 -26 -14 -52 -24 -27 -10 -48 -21
-48 -26 0 -4 -13 -13 -30 -19 -16 -5 -30 -15 -30 -20 0 -6 -6 -11 -14 -11 -8
0 -21 -8 -28 -18 -7 -11 -23 -24 -34 -30 -29 -15 -124 -108 -124 -121 0 -5 -8
-14 -17 -20 -16 -8 -15 -11 7 -30 14 -11 28 -20 33 -21 4 0 15 -7 25 -16 66
-60 112 -82 112 -54 0 14 89 100 104 100 6 0 17 9 24 20 7 11 19 20 27 20 8 0
15 5 15 10 0 6 11 15 25 20 14 5 25 14 25 18 0 5 27 17 59 26 33 9 61 21 63
26 2 6 38 15 81 22 42 7 77 16 77 20 0 5 50 8 110 8 61 0 110 -3 110 -8 0 -4
35 -13 77 -20 42 -6 79 -16 82 -20 3 -5 32 -17 64 -27 31 -10 57 -22 57 -27 0
-4 11 -13 25 -18 14 -5 25 -14 25 -20 0 -5 6 -10 13 -10 18 0 147 -107 147
-122 0 -4 7 -16 16 -25 42 -48 65 -80 70 -100 4 -13 10 -23 14 -23 4 0 13 -20
19 -45 6 -25 15 -45 20 -45 9 0 31 -121 31 -174 0 -20 5 -36 10 -36 6 0 10
-18 10 -40 0 -22 -4 -40 -10 -40 -5 0 -10 -15 -10 -33 0 -44 -21 -147 -30
-147 -4 0 -12 -25 -19 -55 -7 -30 -17 -55 -22 -55 -6 0 -17 -16 -25 -35 -8
-19 -19 -35 -24 -35 -6 0 -10 -6 -10 -14 0 -8 -11 -24 -25 -37 -13 -13 -25
-28 -25 -33 0 -10 -82 -86 -92 -86 -4 0 -20 -13 -35 -29 -16 -15 -43 -36 -61
-45 -18 -9 -42 -25 -52 -34 -36 -33 -50 -42 -75 -52 -14 -5 -25 -14 -25 -19 0
-5 -14 -12 -31 -16 -17 -4 -33 -13 -35 -20 -3 -7 -15 -16 -27 -20 -19 -6 -16
-9 21 -18 23 -5 42 -13 42 -17 0 -4 27 -13 60 -20 33 -7 60 -16 60 -20 0 -4
27 -13 60 -20 33 -7 60 -16 60 -20 0 -3 35 -15 77 -25 42 -9 83 -24 90 -31 8
-7 29 -16 48 -20 19 -3 35 -10 35 -15 0 -4 18 -14 40 -20 22 -7 40 -16 40 -20
0 -5 18 -14 40 -20 22 -7 40 -16 40 -20 0 -4 17 -16 38 -25 20 -10 41 -24 45
-31 4 -7 14 -13 22 -13 8 0 19 -9 25 -20 6 -11 17 -20 25 -20 8 0 19 -8 24
-18 5 -10 22 -24 37 -32 30 -16 74 -56 74 -68 0 -4 23 -31 50 -61 28 -30 50
-60 50 -67 0 -8 5 -14 10 -14 6 0 15 -11 20 -25 5 -14 13 -25 18 -25 4 0 17
-24 27 -52 10 -29 24 -58 31 -65 6 -7 15 -29 19 -50 4 -21 11 -41 17 -44 5 -3
15 -49 21 -103 6 -53 15 -96 19 -96 4 0 8 -31 8 -70 0 -40 -4 -70 -10 -70 -5
0 -10 -13 -10 -30 0 -40 -19 -80 -54 -110 -15 -14 -36 -32 -46 -41 -10 -9 -34
-22 -54 -29 -20 -6 -36 -15 -36 -20 0 -9 -162 -40 -208 -40 -17 0 -32 -5 -34
-11 -2 -7 -74 -13 -211 -16 l-207 -6 0 -105 0 -105 226 6 c125 3 229 9 233 14
3 5 49 15 101 22 52 7 97 17 98 22 2 5 10 9 17 9 22 0 115 33 115 41 0 4 17
13 38 20 20 7 43 20 50 31 7 10 18 18 23 18 12 0 99 88 99 100 0 5 6 15 13 22
17 16 47 104 47 135 0 13 5 23 10 23 6 0 10 48 10 125 0 77 -4 125 -10 125 -5
0 -10 11 -10 24 0 39 -30 200 -39 206 -4 3 -13 26 -21 53 -7 26 -16 47 -20 47
-4 0 -12 18 -19 40 -6 22 -16 40 -21 40 -5 0 -14 16 -21 35 -7 19 -17 35 -21
35 -5 0 -13 11 -18 25 -5 14 -14 25 -20 25 -5 0 -10 7 -10 15 0 8 -9 20 -20
27 -11 7 -20 18 -20 24 0 6 -10 20 -22 31 -13 11 -42 40 -64 64 -23 24 -65 64
-93 89 -29 25 -62 54 -74 66 -12 11 -30 23 -39 27 -10 3 -18 11 -18 16 0 5
-13 12 -28 16 -15 3 -41 17 -57 31 -16 13 -39 27 -52 30 -13 4 -23 9 -23 13 0
5 -18 14 -40 21 -22 7 -40 16 -40 20 0 4 -26 15 -57 25 -32 10 -60 21 -63 24
-3 4 -24 13 -47 21 -24 7 -43 19 -43 27 0 7 4 13 10 13 11 0 120 107 120 118
0 4 12 18 25 31 14 13 25 29 25 37 0 8 5 14 10 14 6 0 16 12 23 28 6 15 17 30
24 35 6 4 14 21 18 37 4 17 11 30 15 30 5 0 15 19 22 43 6 23 15 44 19 47 4 3
13 34 20 70 7 36 18 68 24 72 14 10 13 357 -1 366 -6 4 -17 37 -24 75 -7 37
-16 67 -20 67 -4 0 -13 18 -20 40 -7 22 -17 40 -21 40 -4 0 -13 17 -20 38 -6
20 -18 41 -25 45 -8 4 -14 13 -14 19 0 6 -7 18 -15 27 -47 52 -55 62 -55 68 0
10 -108 113 -119 113 -6 0 -15 9 -21 20 -6 11 -17 20 -25 20 -8 0 -18 6 -22
13 -4 6 -21 19 -38 27 -16 8 -34 20 -40 26 -5 7 -27 17 -47 24 -21 6 -38 15
-38 20 0 4 -24 14 -52 20 -29 7 -55 16 -58 21 -3 4 -42 13 -88 20 -45 8 -82
17 -82 21 0 4 -58 8 -130 8 -71 0 -130 -4 -130 -8z"/>
<path d="M4945 7458 c-44 -6 -82 -13 -85 -17 -3 -4 -33 -14 -67 -21 -35 -7
-63 -16 -63 -20 0 -4 -18 -12 -40 -19 -22 -6 -40 -15 -40 -19 0 -5 -17 -14
-37 -21 -21 -8 -40 -17 -43 -20 -3 -4 -22 -15 -42 -24 -21 -10 -38 -22 -38
-27 0 -6 -6 -10 -13 -10 -6 0 -25 -13 -40 -30 -16 -16 -32 -30 -37 -30 -13 0
-119 -110 -125 -131 -4 -10 -11 -19 -16 -19 -5 0 -14 -11 -19 -25 -5 -14 -14
-25 -19 -25 -5 0 -14 -13 -21 -30 -7 -16 -16 -30 -21 -30 -4 0 -13 -16 -20
-35 -7 -19 -17 -35 -21 -35 -4 0 -13 -20 -19 -45 -6 -25 -15 -45 -19 -45 -4 0
-13 -30 -20 -67 -7 -38 -18 -71 -24 -75 -15 -10 -15 -406 0 -416 6 -4 17 -37
24 -74 8 -38 17 -68 21 -68 3 0 12 -21 18 -46 6 -25 21 -55 31 -67 11 -11 20
-27 20 -34 0 -7 4 -13 8 -13 5 0 14 -16 22 -35 7 -19 19 -36 27 -39 7 -3 13
-12 13 -20 0 -7 11 -21 25 -30 14 -9 25 -21 25 -26 0 -12 126 -140 138 -140 5
0 18 -11 30 -24 l21 -25 -30 -6 c-16 -4 -29 -10 -29 -14 0 -4 -22 -13 -50 -20
-27 -7 -50 -16 -50 -20 0 -4 -27 -15 -60 -25 -33 -10 -60 -21 -60 -25 0 -5
-18 -14 -39 -21 -22 -7 -42 -19 -45 -25 -2 -7 -18 -16 -35 -20 -17 -4 -31 -11
-31 -16 0 -6 -16 -17 -35 -25 -19 -8 -35 -18 -35 -22 0 -4 -14 -13 -32 -21
-33 -15 -37 -18 -107 -81 -24 -22 -51 -42 -60 -45 -9 -3 -41 -33 -71 -66 -30
-34 -68 -76 -85 -94 -16 -17 -36 -44 -44 -58 -8 -15 -18 -27 -21 -27 -4 0 -13
-13 -20 -29 -6 -16 -18 -32 -25 -35 -7 -2 -16 -18 -20 -35 -4 -17 -11 -31 -16
-31 -6 0 -15 -13 -20 -30 -6 -16 -14 -30 -17 -30 -4 0 -16 -29 -27 -65 -10
-36 -22 -65 -26 -65 -3 0 -12 -28 -19 -62 -7 -35 -17 -65 -21 -68 -9 -7 -29
-194 -29 -277 0 -70 19 -193 30 -193 4 0 13 -18 20 -40 7 -22 16 -40 20 -40 4
0 10 -8 14 -17 13 -41 58 -92 98 -112 16 -8 28 -18 28 -21 0 -4 14 -13 30 -20
17 -7 30 -16 30 -20 0 -4 21 -13 48 -20 26 -8 50 -17 53 -22 6 -9 131 -38 166
-38 12 0 23 -4 25 -9 4 -12 212 -31 341 -31 65 0 107 -4 107 -10 0 -7 273 -10
800 -10 527 0 800 3 800 10 0 6 40 10 101 10 117 0 342 19 349 29 3 4 44 15
93 25 48 10 87 22 87 26 0 4 16 11 35 14 19 4 40 13 47 20 7 7 28 19 46 27 17
7 32 17 32 22 0 4 15 15 34 24 19 9 40 28 48 42 7 14 21 32 31 39 9 7 17 19
17 26 0 8 6 16 13 19 7 3 20 31 27 63 8 33 19 62 24 66 16 11 14 340 -2 346
-7 2 -12 15 -12 28 0 33 -31 168 -40 174 -4 3 -13 26 -21 53 -7 26 -16 47 -20
47 -3 0 -12 18 -19 39 -7 22 -18 42 -25 45 -7 2 -15 16 -19 30 -4 15 -14 35
-24 46 -28 31 -39 45 -52 71 -7 13 -28 39 -47 58 -18 18 -33 36 -33 41 0 11
-131 140 -143 140 -5 0 -24 16 -43 35 -18 19 -37 35 -43 35 -5 0 -16 8 -23 18
-7 10 -28 25 -45 33 -18 7 -33 17 -33 21 0 4 -17 15 -37 25 -21 9 -44 23 -51
30 -7 7 -20 13 -27 13 -8 0 -18 6 -22 14 -4 7 -25 19 -45 25 -21 7 -38 16 -38
20 0 5 -27 16 -60 25 -33 9 -60 21 -60 25 0 5 -20 14 -45 20 -25 6 -45 15 -45
20 0 5 -16 12 -35 15 -37 7 -39 30 -4 41 21 7 169 150 169 165 0 5 8 15 18 22
9 7 24 27 32 43 8 17 20 33 26 37 7 4 15 19 18 33 4 14 15 34 26 45 11 11 20
27 20 35 0 8 4 15 8 15 5 0 14 23 21 50 7 28 16 50 20 50 4 0 14 38 21 85 7
47 17 85 22 85 4 0 8 63 8 140 0 87 -4 140 -10 140 -5 0 -10 12 -10 26 0 40
-22 154 -30 154 -4 0 -13 25 -20 55 -7 30 -17 55 -21 55 -4 0 -13 16 -19 35
-6 19 -15 35 -20 35 -4 0 -14 15 -21 33 -7 17 -21 38 -31 45 -10 7 -18 17 -18
23 0 5 -8 17 -17 28 -10 10 -29 33 -43 52 -14 18 -36 42 -49 54 -13 11 -31 28
-40 38 -8 9 -20 17 -25 17 -5 0 -19 10 -31 23 -35 34 -51 45 -89 64 -20 9 -36
20 -36 23 0 4 -18 13 -40 20 -22 7 -40 16 -40 20 0 4 -18 13 -40 20 -22 7 -40
16 -40 20 0 4 -28 13 -62 20 -35 7 -65 17 -68 21 -8 10 -200 29 -288 28 -42
-1 -113 -6 -157 -11z m313 -209 c53 -6 99 -14 102 -18 3 -5 29 -14 58 -21 28
-6 52 -16 52 -20 0 -5 23 -16 50 -25 28 -9 50 -20 50 -24 0 -4 16 -13 35 -21
19 -7 36 -19 39 -27 3 -7 10 -13 16 -13 11 0 160 -143 160 -153 0 -4 8 -16 18
-26 26 -30 36 -43 52 -76 8 -16 17 -32 20 -35 8 -7 40 -109 40 -126 0 -8 4
-14 9 -14 12 0 31 -137 31 -228 0 -84 -17 -203 -29 -212 -5 -3 -14 -29 -21
-58 -7 -29 -18 -58 -24 -65 -7 -7 -17 -27 -24 -44 -11 -34 -14 -38 -57 -87
-14 -16 -25 -32 -25 -36 0 -16 -134 -142 -199 -188 -13 -9 -31 -24 -40 -32 -9
-8 -35 -24 -59 -34 -23 -10 -42 -22 -42 -26 0 -4 -13 -13 -30 -20 -16 -7 -30
-16 -30 -20 0 -5 -13 -13 -30 -19 -16 -5 -30 -14 -30 -18 0 -5 -16 -15 -35
-22 -19 -7 -35 -16 -35 -21 0 -10 49 -26 108 -35 23 -4 42 -10 42 -15 0 -4 29
-14 65 -21 36 -7 65 -16 65 -19 0 -4 27 -13 60 -20 33 -7 60 -17 60 -21 0 -5
5 -9 12 -9 22 0 128 -34 128 -41 0 -4 23 -13 50 -20 28 -7 50 -16 50 -20 0 -4
16 -13 35 -19 19 -6 35 -15 35 -20 0 -5 13 -11 30 -15 16 -4 33 -12 37 -19 5
-6 27 -20 51 -30 23 -11 42 -22 42 -26 0 -4 13 -13 29 -20 16 -6 32 -18 35
-26 3 -8 12 -14 20 -14 9 0 20 -9 26 -20 6 -11 16 -20 22 -20 7 0 50 -40 97
-89 117 -121 131 -137 131 -150 0 -6 6 -14 13 -17 8 -3 20 -20 27 -39 8 -19
17 -35 21 -35 4 0 15 -23 25 -50 10 -28 21 -50 24 -50 4 0 13 -19 20 -42 8
-24 18 -45 22 -48 4 -3 13 -39 20 -80 7 -41 16 -78 21 -81 14 -10 14 -268 1
-277 -6 -4 -16 -22 -22 -41 -7 -19 -27 -47 -44 -63 -18 -16 -40 -35 -48 -43
-8 -7 -28 -17 -43 -20 -15 -4 -27 -11 -27 -15 0 -4 -27 -13 -60 -20 -33 -7
-60 -16 -60 -20 0 -8 -148 -30 -207 -30 -24 0 -43 -4 -43 -10 0 -7 -347 -10
-1020 -10 -673 0 -1020 3 -1020 10 0 6 -20 10 -44 10 -61 0 -200 20 -206 29
-3 5 -26 11 -52 15 -26 4 -54 13 -61 20 -7 8 -28 17 -46 21 -18 4 -35 13 -38
21 -3 8 -10 14 -17 14 -17 0 -64 46 -72 72 -3 13 -11 25 -15 29 -26 16 -27
340 -1 358 4 3 14 35 21 71 7 36 16 67 20 70 5 3 14 23 21 45 7 22 19 46 27
53 7 7 13 20 13 27 0 7 6 20 13 27 7 7 21 30 30 51 10 20 22 37 27 37 6 0 10
6 10 13 0 24 203 237 226 237 7 0 18 9 24 20 6 11 17 20 25 20 8 0 19 9 25 20
6 11 17 20 25 20 8 0 18 6 22 13 8 14 73 47 92 47 6 0 11 4 11 9 0 5 14 14 30
21 17 7 30 16 30 20 0 5 23 14 50 21 28 7 50 16 50 20 0 5 19 14 43 21 23 7
47 17 53 23 7 6 37 17 68 25 31 7 56 16 56 20 0 4 27 13 60 20 33 7 60 16 60
20 0 3 29 12 65 19 36 7 65 17 65 21 0 4 17 11 38 14 66 12 112 27 112 35 0 5
-13 14 -30 21 -16 7 -30 16 -30 20 0 5 -17 14 -37 21 -21 6 -42 18 -46 25 -4
8 -14 14 -22 14 -8 0 -18 6 -22 13 -4 7 -25 21 -45 31 -21 9 -38 21 -38 26 0
6 -6 10 -12 10 -7 0 -29 14 -48 30 -19 16 -38 30 -42 30 -10 0 -148 140 -172
174 -11 15 -28 36 -37 48 -10 11 -24 36 -30 56 -7 20 -18 42 -25 50 -7 7 -16
28 -20 47 -3 19 -10 35 -14 35 -9 0 -30 101 -30 142 0 15 -4 28 -10 28 -6 0
-10 37 -10 90 0 53 4 90 10 90 6 0 10 13 10 30 0 36 20 133 29 140 4 3 13 25
21 50 8 25 17 47 20 50 3 3 14 22 23 43 10 20 22 37 27 37 6 0 10 7 10 15 0 8
9 20 20 27 11 7 20 18 20 25 0 6 14 24 31 40 17 15 47 44 67 64 21 20 45 39
55 42 9 4 17 11 17 17 0 5 6 10 13 10 7 0 22 8 33 18 10 10 43 27 72 37 28 10
52 22 52 26 0 4 26 13 58 20 31 7 59 16 62 21 7 9 124 25 203 27 32 0 101 -4
155 -10z"/>
<path d="M5104 3206 c-3 -14 -12 -27 -19 -30 -7 -2 -16 -18 -20 -35 -4 -17
-11 -31 -15 -31 -11 0 -30 -65 -30 -102 0 -14 -6 -29 -12 -31 -10 -4 -10 -6 0
-6 6 -1 12 -11 12 -22 0 -30 22 -99 31 -99 4 0 13 -16 19 -35 6 -19 15 -35 20
-35 4 0 11 -25 15 -55 9 -75 31 -74 40 1 4 30 13 60 19 67 7 7 18 28 26 47 8
19 18 38 22 41 28 19 23 186 -6 215 -8 8 -17 27 -21 43 -3 16 -13 32 -21 35
-8 3 -14 12 -14 20 0 9 -9 20 -20 26 -17 9 -20 7 -26 -14z"/>
<path d="M4825 2900 c-20 -18 -50 -49 -64 -65 -16 -20 -20 -123 -6 -133 6 -4
16 -19 24 -34 23 -46 115 -71 174 -49 48 19 42 113 -8 125 -29 7 -55 -2 -55
-20 0 -8 -4 -14 -10 -14 -17 0 -11 29 10 50 20 20 90 29 90 12 0 -5 11 -14 24
-20 17 -8 27 -22 32 -47 5 -30 10 -35 35 -35 22 0 29 5 29 20 0 11 -4 20 -9
20 -5 0 -12 18 -16 40 -8 46 -87 140 -117 140 -10 0 -18 5 -18 10 0 12 -101
12 -115 0z"/>
<path d="M5310 2900 c0 -5 -8 -10 -18 -10 -25 0 -100 -75 -109 -108 -3 -15 -9
-29 -13 -32 -4 -3 -10 -22 -14 -42 -7 -36 -5 -38 19 -38 18 0 25 5 25 20 0 11
4 20 9 20 5 0 11 9 14 21 3 11 15 23 26 26 12 3 21 9 21 14 0 5 17 9 38 9 32
0 41 -5 53 -27 8 -16 18 -31 24 -35 6 -5 2 -8 -7 -8 -10 0 -18 6 -18 14 0 16
-32 26 -59 19 -25 -6 -44 -53 -35 -87 21 -86 202 -43 220 51 3 18 10 33 15 33
5 0 9 9 9 20 0 11 -4 20 -10 20 -5 0 -10 9 -10 20 0 34 -22 69 -52 82 -15 7
-28 16 -28 20 0 5 -22 8 -50 8 -27 0 -50 -4 -50 -10z"/>
<path d="M5026 2644 c-11 -29 4 -34 99 -34 95 0 110 5 99 34 -9 24 -189 24
-198 0z"/>
<path d="M5038 2568 c-4 -28 -58 -40 -58 -14 0 21 -26 21 -34 0 -17 -45 5 -74
57 -74 30 0 77 42 77 70 0 11 5 20 10 20 6 0 10 -9 10 -20 0 -11 -4 -20 -8
-20 -4 0 -14 -16 -21 -35 -7 -19 -17 -35 -22 -35 -5 0 -9 -4 -9 -10 0 -5 7
-10 16 -10 17 0 54 -36 54 -52 0 -21 29 -5 40 22 8 18 20 30 31 30 11 0 19 2
19 5 0 12 -24 55 -31 55 -4 0 -12 19 -16 43 l-9 42 -51 3 c-47 2 -52 0 -55
-20z"/>
<path d="M5158 2568 c3 -13 8 -25 11 -28 3 -3 11 -14 17 -25 14 -26 54 -40 88
-31 31 8 41 26 32 61 -7 27 -36 35 -36 10 0 -15 -26 -20 -54 -9 -9 3 -16 15
-16 25 0 13 -7 19 -24 19 -20 0 -23 -4 -18 -22z"/>
<path d="M3370 2130 l0 -180 44 0 c51 0 56 8 56 81 l0 49 50 0 c39 0 53 -4 62
-20 7 -11 18 -20 24 -20 6 0 27 -15 47 -32 20 -18 43 -39 51 -45 14 -12 156
-19 156 -8 0 8 -51 55 -59 55 -5 0 -25 16 -45 35 l-37 35 35 0 c40 0 86 33 86
62 0 10 5 18 10 18 6 0 10 11 10 25 0 14 -4 25 -9 25 -6 0 -11 15 -13 33 -2
22 -10 35 -25 42 -13 5 -23 13 -23 17 0 5 -94 8 -210 8 l-210 0 0 -180z m377
63 c4 -10 -28 -13 -136 -13 -106 0 -141 3 -141 13 0 9 34 12 137 12 100 0 137
-3 140 -12z"/>
<path d="M3980 2301 c0 -5 -15 -12 -34 -15 -25 -5 -36 -13 -40 -31 -4 -14 -11
-25 -16 -25 -6 0 -10 -41 -10 -100 0 -60 4 -100 10 -100 6 0 10 -9 10 -21 0
-13 10 -23 30 -30 17 -6 30 -15 30 -20 0 -5 72 -9 160 -9 100 0 160 4 160 10
0 6 8 10 18 10 36 0 60 36 67 99 15 128 -13 221 -67 221 -10 0 -18 5 -18 10 0
6 -57 10 -150 10 -82 0 -150 -4 -150 -9z m274 -107 c12 -5 16 -21 16 -65 0
-72 1 -71 -160 -67 l-115 3 -3 68 -3 67 125 0 c68 0 131 -3 140 -6z"/>
<path d="M4480 2301 c0 -5 -13 -12 -28 -16 -38 -8 -52 -50 -52 -158 0 -99 11
-131 52 -149 15 -7 28 -16 28 -20 0 -14 319 -9 336 5 49 40 54 48 54 92 l0 45
-44 0 c-35 0 -45 -4 -49 -20 -5 -19 -14 -20 -125 -20 -66 0 -127 3 -136 6 -12
5 -16 20 -16 64 0 44 4 59 16 64 9 3 70 6 136 6 111 0 120 -1 125 -20 4 -16
14 -20 49 -20 43 0 44 0 44 34 0 56 -16 86 -50 92 -16 4 -30 10 -30 15 0 5
-70 9 -155 9 -88 0 -155 -4 -155 -9z"/>
<path d="M4910 2130 l0 -180 219 0 219 0 4 45 c2 24 2 49 0 55 -2 6 -65 10
-168 10 l-164 0 0 125 0 125 -55 0 -55 0 0 -180z"/>
<path d="M5558 2280 c-7 -16 -16 -30 -20 -30 -3 0 -12 -16 -18 -35 -6 -19 -15
-35 -20 -35 -5 0 -11 -14 -15 -31 -4 -17 -13 -33 -20 -35 -6 -3 -18 -23 -25
-45 -7 -21 -17 -39 -21 -39 -7 0 -29 -54 -29 -71 0 -14 90 -10 104 4 7 7 18
22 25 35 11 20 19 22 104 22 l93 0 13 -35 c12 -35 13 -35 72 -35 33 0 59 4 59
10 0 12 -20 49 -37 67 -6 7 -14 26 -18 43 -4 16 -11 30 -16 30 -6 0 -15 14
-20 30 -6 17 -14 30 -18 30 -4 0 -13 16 -20 35 -7 19 -16 35 -21 35 -5 0 -15
18 -21 40 l-12 40 -53 0 c-49 0 -53 -2 -66 -30z m72 -104 c0 -2 7 -20 15 -40
l15 -36 -35 0 c-38 0 -43 10 -22 53 10 22 27 37 27 23z"/>
<path d="M5890 2130 l0 -180 50 0 50 0 0 85 c0 47 4 85 9 85 17 0 71 -22 71
-29 0 -4 18 -13 40 -20 22 -6 40 -15 40 -19 0 -4 26 -16 58 -27 31 -11 59 -22
62 -25 3 -3 21 -12 40 -20 19 -8 38 -19 42 -24 4 -6 8 71 8 172 l0 182 -45 0
-45 0 0 -86 c0 -75 -2 -85 -16 -80 -9 3 -27 9 -40 12 -13 3 -24 10 -24 14 0 5
-22 16 -50 25 -27 9 -50 20 -50 25 0 4 -22 13 -50 20 -27 7 -50 16 -50 20 0 5
-16 14 -35 20 -19 6 -35 16 -35 21 0 5 -7 9 -15 9 -13 0 -15 -27 -15 -180z"/>
<path d="M6400 2130 l0 -180 200 0 c110 0 200 4 200 8 0 4 15 13 34 20 41 15
46 29 46 154 0 73 -4 100 -15 112 -8 8 -15 19 -15 25 0 6 -11 13 -25 17 -14 3
-25 10 -25 15 0 5 -90 9 -200 9 l-200 0 0 -180z m376 56 c20 -21 19 -112 -2
-120 -9 -3 -72 -6 -140 -6 l-124 0 0 70 0 70 126 0 c95 0 129 -3 140 -14z"/>
</g>
</svg>
